<?xml version="1.0" encoding="utf-8"?>
<!-- Generator: Adobe Illustrator 27.5.0, SVG Export Plug-In . SVG Version: 6.00 Build 0)  -->
<svg version="1.1" xmlns="http://www.w3.org/2000/svg" xmlns:xlink="http://www.w3.org/1999/xlink" x="0px" y="0px"
	 viewBox="0 0 500 500" style="enable-background:new 0 0 500 500;" xml:space="preserve">
<g id="Floor">
	<path style="fill:#F5F5F5;" d="M419.115,236.427c-94.011-54.278-245.937-54.277-339.337,0.001
		c-93.406,54.282-92.911,142.283,1.1,196.56c94.017,54.281,245.943,54.28,339.349-0.002
		C513.628,378.708,513.133,290.708,419.115,236.427z"/>
</g>
<g id="Shadow">
	<path style="fill:#E0E0E0;" d="M287.953,317.745c-30.295-17.491-79.254-17.491-109.352,0c-30.1,17.492-29.941,45.851,0.355,63.342
		c30.297,17.492,79.255,17.492,109.356-0.001C318.41,363.595,318.251,335.237,287.953,317.745z"/>
</g>
<g id="Plants">
	<g>
		<path style="fill:#F0F0F0;" d="M101.275,259.054l5.697-4.674c0.347-8.98,0.699-18.439-0.793-27.301
			c-1.492-8.862-4.973-17.63-11.312-23.999c-2.656-2.668-5.949-4.943-9.69-5.369c-3.741-0.426-7.914,1.458-9.202,4.995
			c-1.348,3.701,0.686,7.719,2.852,11.009c4.617,7.015,10.126,13.414,14.65,20.489S101.169,250.657,101.275,259.054z"/>
		<path style="fill:#F0F0F0;" d="M101.275,260.284l-5.697,4.675c-4.21-8.886-10.022-17.123-18.036-22.823
			c-2.743-1.951-5.687-3.688-7.986-6.147c-2.299-2.459-3.905-5.864-3.237-9.163c0.857-4.234,5.352-7.032,9.672-7.057
			c4.32-0.025,8.37,2.168,11.717,4.899C97.986,233.055,103.864,247.273,101.275,260.284z"/>
		<path style="opacity:0.1;" d="M101.275,260.284l-5.697,4.675c-4.21-8.886-10.022-17.123-18.036-22.823
			c-2.743-1.951-5.687-3.688-7.986-6.147c-2.299-2.459-3.905-5.864-3.237-9.163c0.857-4.234,5.352-7.032,9.672-7.057
			c4.32-0.025,8.37,2.168,11.717,4.899C97.986,233.055,103.864,247.273,101.275,260.284z"/>
		<g>
			<path style="fill:#FFFFFF;" d="M104.486,256.913c0.003,0,0.005,0,0.009,0c0.272-0.005,0.489-0.23,0.484-0.502
				c-0.232-13.316-3.221-37.912-20.63-53.031c-0.207-0.179-0.518-0.155-0.696,0.049c-0.178,0.206-0.157,0.518,0.049,0.696
				c7.349,6.382,19.757,21.663,20.291,52.304C103.998,256.697,104.218,256.913,104.486,256.913z"/>
		</g>
		<g>
			<path style="fill:#FFFFFF;" d="M98.518,263.04c0.015,0,0.032-0.001,0.048-0.003c0.271-0.026,0.47-0.267,0.443-0.538
				c-1.165-11.972-6.389-28.457-24.657-39.015c-0.23-0.136-0.536-0.058-0.673,0.18c-0.137,0.235-0.057,0.537,0.18,0.673
				c17.905,10.348,23.026,26.517,24.169,38.258C98.051,262.85,98.266,263.04,98.518,263.04z"/>
		</g>
	</g>
	<g>
		<path style="fill:#E6E6E6;" d="M438.444,292.672c2.653-2.874,5.678-5.404,8.138-8.444c1.678-2.074,3.139-4.653,2.672-7.28
			c-0.433-2.437-2.552-4.373-4.948-4.992c-2.397-0.62-4.988-0.067-7.174,1.095c-2.186,1.162-4.016,2.893-5.687,4.719
			c-9.133,9.985-14.179,23.604-13.757,37.129c0.048,1.55,0.196,3.188,1.098,4.449c0.968,1.353,2.778,2.044,4.401,1.68
			c4.179-0.936,4.013-6.507,4.904-9.716c1.222-4.399,3.11-8.612,5.576-12.454C435.077,296.663,436.675,294.589,438.444,292.672z"/>
		<g>
			<path style="fill:#F0F0F0;" d="M421.893,316.797c0.161-0.02,0.293-0.148,0.312-0.316c0.735-6.556,4.402-28.854,20.738-40.534
				c0.161-0.115,0.199-0.34,0.083-0.501c-0.115-0.161-0.339-0.198-0.501-0.083c-16.577,11.853-20.29,34.408-21.034,41.038
				c-0.022,0.197,0.12,0.375,0.317,0.397C421.837,316.801,421.865,316.801,421.893,316.797z"/>
		</g>
		<g>
			<path style="fill:#E6E6E6;" d="M422.762,318.802c0.292,2.613,2.291,5.958,4.548,7.307c2.237,1.337,4.905,1.836,7.513,1.79
				c2.655-0.047,5.271-0.629,7.839-1.304c1.268-0.333,2.685-0.802,2.922-2.329c0.125-0.806-0.186-1.616-0.73-2.223
				c-0.228-0.255-0.482-0.505-0.754-0.744c-0.553-0.486-0.216-1.395,0.52-1.395c0.741,0,1.481-0.033,2.217-0.122
				c1.701-0.206,3.397-0.734,4.759-1.774c1.022-0.781,1.828-1.835,2.347-3.012c0.444-1.007,0.637-2.297-0.093-3.121
				c-0.419-0.473-1.052-0.685-1.659-0.86c-0.542-0.156-1.086-0.295-1.633-0.419c-0.727-0.165-0.78-1.175-0.075-1.414l2.399-0.813
				c0.666-0.226,1.361-0.469,1.845-0.979c0.773-0.813,0.807-2.07,0.668-3.183c-0.186-1.48-0.594-2.923-0.839-4.394
				c-0.245-1.471-0.321-3.011,0.147-4.427c-4.326-0.738-8.815-0.836-13.127-0.018c-1.288,0.244-2.596,0.571-3.672,1.319
				c-1.534,1.065-2.032,2.786-2.006,4.689c0.005,0.361-0.498,0.463-0.648,0.135l-1.303-2.85c-0.393-0.859-1.387-1.24-2.267-0.898
				c-1.327,0.516-2.541,1.405-3.591,2.449c-1.132,1.126-1.776,2.667-1.756,4.263c0.027,2.159,0.254,4.359,0.65,6.479
				c0.104,0.555-0.536,0.925-0.971,0.564l-0.067-0.056c-0.387-0.322-0.875-0.533-1.378-0.505c-1.329,0.074-1.756,1.386-1.921,2.516
				C422.409,315.109,422.568,317.068,422.762,318.802z"/>
			<path style="opacity:0.1;" d="M422.762,318.802c0.292,2.613,2.291,5.958,4.548,7.307c2.237,1.337,4.905,1.836,7.513,1.79
				c2.655-0.047,5.271-0.629,7.839-1.304c1.268-0.333,2.685-0.802,2.922-2.329c0.125-0.806-0.186-1.616-0.73-2.223
				c-0.228-0.255-0.482-0.505-0.754-0.744c-0.553-0.486-0.216-1.395,0.52-1.395c0.741,0,1.481-0.033,2.217-0.122
				c1.701-0.206,3.397-0.734,4.759-1.774c1.022-0.781,1.828-1.835,2.347-3.012c0.444-1.007,0.637-2.297-0.093-3.121
				c-0.419-0.473-1.052-0.685-1.659-0.86c-0.542-0.156-1.086-0.295-1.633-0.419c-0.727-0.165-0.78-1.175-0.075-1.414l2.399-0.813
				c0.666-0.226,1.361-0.469,1.845-0.979c0.773-0.813,0.807-2.07,0.668-3.183c-0.186-1.48-0.594-2.923-0.839-4.394
				c-0.245-1.471-0.321-3.011,0.147-4.427c-4.326-0.738-8.815-0.836-13.127-0.018c-1.288,0.244-2.596,0.571-3.672,1.319
				c-1.534,1.065-2.032,2.786-2.006,4.689c0.005,0.361-0.498,0.463-0.648,0.135l-1.303-2.85c-0.393-0.859-1.387-1.24-2.267-0.898
				c-1.327,0.516-2.541,1.405-3.591,2.449c-1.132,1.126-1.776,2.667-1.756,4.263c0.027,2.159,0.254,4.359,0.65,6.479
				c0.104,0.555-0.536,0.925-0.971,0.564l-0.067-0.056c-0.387-0.322-0.875-0.533-1.378-0.505c-1.329,0.074-1.756,1.386-1.921,2.516
				C422.409,315.109,422.568,317.068,422.762,318.802z"/>
			<path style="fill:#F0F0F0;" d="M429.241,325.88c0.024-0.09,1.225-4.402,4.209-9.946c0.007-0.103,0.057-0.196,0.142-0.259
				c0.093-0.171,0.185-0.342,0.282-0.516c-0.279-6.892-2.663-11.85-2.686-11.899c-0.087-0.178-0.013-0.393,0.165-0.481
				c0.178-0.085,0.393-0.013,0.48,0.165c0.023,0.048,2.217,4.608,2.693,11.074c3.382-5.763,8.603-12.418,16.277-17.017
				c0.171-0.101,0.391-0.047,0.493,0.123c0.102,0.17,0.047,0.391-0.123,0.493c-7.915,4.744-13.181,11.709-16.491,17.561
				c6.1-2.472,12.296-0.908,12.571-0.837c0.191,0.05,0.307,0.246,0.256,0.438c-0.038,0.146-0.161,0.247-0.302,0.265
				c-0.044,0.006-0.091,0.003-0.136-0.009c-0.068-0.017-6.822-1.727-12.96,1.176c-2.96,5.488-4.151,9.763-4.175,9.852
				c-0.04,0.145-0.162,0.245-0.302,0.263c-0.045,0.006-0.092,0.003-0.138-0.009C429.303,326.268,429.19,326.071,429.241,325.88z"/>
		</g>
	</g>
</g>
<g id="Rocks">
	<g>
		<g>
			<g>
				<g>
					<polygon style="fill:#E0E0E0;" points="440.827,322.767 425.665,308.842 419.216,308.141 409.857,313.196 408.414,317.84 
						404.134,321.824 402.322,327.377 411.095,330.991 412.004,332.314 417.928,334.932 420.555,338.541 428.113,338.422 
						431.138,335.268 439.727,333.881 446.004,331.252 445.541,327.372 443.822,323.561 					"/>
					<polygon style="opacity:0.1;" points="440.827,322.767 443.822,323.561 445.541,327.372 438.905,330.484 426.616,332.189 
						424.103,331.563 421.54,324.444 425.134,330.485 438.085,328.803 442.826,326.601 443.048,323.988 					"/>
					<polygon style="opacity:0.1;" points="434.549,317.001 436.947,322.468 430.465,322.283 422.438,324.668 430.283,320.142 
						433.918,321.047 433.882,318.703 431.07,313.807 					"/>
					<polygon style="opacity:0.3;" points="433.451,326.267 429.75,325.345 430.465,322.283 436.947,322.468 					"/>
					<polygon style="opacity:0.4;" points="424.244,328.989 429.75,325.345 430.465,322.283 422.438,324.668 					"/>
					<polygon style="opacity:0.2;" points="425.665,308.842 424.855,314.962 421.624,317.985 418.776,313.988 419.216,308.141 					
						"/>
					<polygon style="opacity:0.1;" points="420.336,319.586 417.274,314.281 419.216,308.141 418.776,313.988 421.624,317.985 					
						"/>
					<polygon style="opacity:0.3;" points="421.54,324.444 420.336,319.586 417.274,314.281 419.216,308.141 409.857,313.196 
						412.948,316.983 418.602,319.535 					"/>
					<polygon style="opacity:0.4;" points="420.555,338.541 424.103,331.563 421.54,324.444 418.602,319.535 412.948,316.983 
						409.857,313.196 408.414,317.84 412.731,317.343 417.276,320.619 419.522,324.323 					"/>
					<polygon style="opacity:0.3;" points="417.928,334.932 419.926,329.893 420.555,338.541 					"/>
					<polygon style="opacity:0.4;" points="412.004,332.314 411.787,327.638 409.986,320.137 404.003,328.069 411.095,330.991 					
						"/>
					<polygon style="opacity:0.3;" points="412.731,317.343 409.986,320.137 404.003,328.069 402.322,327.377 404.134,321.824 
						408.414,317.84 					"/>
					<polygon style="opacity:0.2;" points="417.928,334.932 412.004,332.314 411.787,327.638 409.986,320.137 412.731,317.343 
						417.276,320.619 419.522,324.323 419.926,329.893 					"/>
					<polygon style="opacity:0.3;" points="426.616,332.189 428.113,338.422 420.555,338.541 424.103,331.563 					"/>
					<polygon style="opacity:0.4;" points="431.138,335.268 429.304,331.816 426.616,332.189 428.113,338.422 					"/>
					<polygon style="opacity:0.3;" points="436.496,334.403 434.973,331.03 429.304,331.816 431.138,335.268 					"/>
					<polygon style="opacity:0.4;" points="439.727,333.881 438.905,330.484 434.973,331.03 436.496,334.403 					"/>
					<polygon style="opacity:0.3;" points="445.541,327.372 438.905,330.484 439.727,333.881 446.004,331.252 					"/>
					<polygon style="opacity:0.05;" points="433.882,318.703 433.918,321.047 430.283,320.142 422.438,324.668 424.244,328.989 
						421.54,324.444 420.336,319.586 421.624,317.985 424.855,314.962 425.665,308.842 431.07,313.807 					"/>
				</g>
			</g>
		</g>
		<polygon style="opacity:0.3;fill:#FFFFFF;" points="445.541,327.372 443.822,323.561 440.827,322.767 434.549,317.002 
			434.549,317.001 431.07,313.807 425.664,308.842 419.216,308.141 409.857,313.196 408.414,317.84 404.134,321.824 
			402.322,327.377 404.003,328.069 411.095,330.991 412.004,332.314 417.928,334.932 420.555,338.541 428.113,338.422 
			431.138,335.268 439.727,333.881 446.004,331.252 		"/>
	</g>
	<g>
		<g>
			<g>
				<polygon style="fill:#E0E0E0;" points="451.109,375.999 441.031,366.743 436.744,366.277 430.523,369.637 429.564,372.724 
					426.719,375.372 425.515,379.063 431.346,381.466 431.951,382.345 435.888,384.085 437.634,386.484 442.658,386.405 
					444.669,384.309 450.378,383.387 454.55,381.639 454.242,379.06 453.1,376.527 				"/>
				<polygon style="opacity:0.1;" points="451.109,375.999 453.1,376.527 454.242,379.06 449.832,381.129 441.663,382.262 
					439.993,381.845 438.289,377.114 440.678,381.129 449.286,380.011 452.438,378.547 452.586,376.81 				"/>
				<polygon style="opacity:0.1;" points="446.936,372.166 448.53,375.8 444.221,375.677 438.886,377.262 444.101,374.254 
					446.516,374.855 446.493,373.297 444.624,370.043 				"/>
				<polygon style="opacity:0.3;" points="446.206,378.325 443.746,377.713 444.221,375.677 448.53,375.8 				"/>
				<polygon style="opacity:0.4;" points="440.087,380.135 443.746,377.713 444.221,375.677 438.886,377.262 				"/>
				<polygon style="opacity:0.2;" points="441.031,366.743 440.493,370.811 438.345,372.82 436.452,370.163 436.744,366.277 				"/>
				<polygon style="opacity:0.1;" points="437.489,373.884 435.453,370.358 436.744,366.277 436.452,370.163 438.345,372.82 				"/>
				<polygon style="opacity:0.3;" points="438.289,377.114 437.489,373.884 435.453,370.358 436.744,366.277 430.523,369.637 
					432.578,372.154 436.336,373.851 				"/>
				<polygon style="opacity:0.4;" points="437.634,386.484 439.993,381.845 438.289,377.114 436.336,373.851 432.578,372.154 
					430.523,369.637 429.564,372.724 432.434,372.393 435.454,374.571 436.947,377.033 				"/>
				<polygon style="opacity:0.3;" points="435.888,384.085 437.216,380.735 437.634,386.484 				"/>
				<polygon style="opacity:0.4;" points="431.951,382.345 431.806,379.236 430.609,374.251 426.632,379.523 431.346,381.466 				
					"/>
				<polygon style="opacity:0.3;" points="432.434,372.393 430.609,374.251 426.632,379.523 425.515,379.063 426.719,375.372 
					429.564,372.724 				"/>
				<polygon style="opacity:0.2;" points="435.888,384.085 431.951,382.345 431.806,379.236 430.609,374.251 432.434,372.393 
					435.454,374.571 436.947,377.033 437.216,380.735 				"/>
				<polygon style="opacity:0.3;" points="441.663,382.262 442.658,386.405 437.634,386.484 439.993,381.845 				"/>
				<polygon style="opacity:0.4;" points="444.669,384.309 443.449,382.014 441.663,382.262 442.658,386.405 				"/>
				<polygon style="opacity:0.3;" points="448.23,383.733 447.218,381.491 443.449,382.014 444.669,384.309 				"/>
				<polygon style="opacity:0.4;" points="450.378,383.387 449.832,381.129 447.218,381.491 448.23,383.733 				"/>
				<polygon style="opacity:0.3;" points="454.242,379.06 449.832,381.129 450.378,383.387 454.55,381.639 				"/>
				<polygon style="opacity:0.05;" points="446.493,373.297 446.516,374.855 444.101,374.254 438.886,377.262 440.087,380.135 
					438.289,377.114 437.489,373.884 438.345,372.82 440.493,370.811 441.031,366.743 444.624,370.043 				"/>
			</g>
			<g>
				<polygon style="fill:#E0E0E0;" points="431.834,379.372 424.593,372.722 421.514,372.387 417.044,374.801 416.355,377.019 
					414.311,378.922 413.446,381.573 417.635,383.299 418.07,383.931 420.898,385.182 422.153,386.905 425.762,386.848 
					427.207,385.342 431.309,384.68 434.307,383.424 434.085,381.571 433.264,379.751 				"/>
				<polygon style="opacity:0.1;" points="431.834,379.372 433.264,379.751 434.085,381.571 430.917,383.057 425.048,383.871 
					423.848,383.573 422.624,380.173 424.34,383.058 430.525,382.254 432.789,381.203 432.895,379.955 				"/>
				<polygon style="opacity:0.1;" points="428.836,376.619 429.981,379.229 426.886,379.141 423.052,380.28 426.799,378.118 
					428.535,378.55 428.517,377.431 427.175,375.093 				"/>
				<polygon style="opacity:0.3;" points="428.312,381.043 426.544,380.603 426.886,379.141 429.981,379.229 				"/>
				<polygon style="opacity:0.4;" points="423.915,382.344 426.544,380.603 426.886,379.141 423.052,380.28 				"/>
				<polygon style="opacity:0.2;" points="424.593,372.722 424.207,375.644 422.664,377.088 421.304,375.179 421.514,372.387 				
					"/>
				<polygon style="opacity:0.1;" points="422.049,377.853 420.586,375.319 421.514,372.387 421.304,375.179 422.664,377.088 				
					"/>
				<polygon style="opacity:0.3;" points="422.624,380.173 422.049,377.853 420.586,375.319 421.514,372.387 417.044,374.801 
					418.52,376.61 421.22,377.828 				"/>
				<polygon style="opacity:0.4;" points="422.153,386.905 423.848,383.573 422.624,380.173 421.22,377.828 418.52,376.61 
					417.044,374.801 416.355,377.019 418.417,376.781 420.587,378.346 421.66,380.115 				"/>
				<polygon style="opacity:0.3;" points="420.898,385.182 421.853,382.775 422.153,386.905 				"/>
				<polygon style="opacity:0.4;" points="418.07,383.931 417.966,381.698 417.106,378.116 414.248,381.904 417.635,383.299 				"/>
				<polygon style="opacity:0.3;" points="418.417,376.781 417.106,378.116 414.248,381.904 413.446,381.573 414.311,378.922 
					416.355,377.019 				"/>
				<polygon style="opacity:0.2;" points="420.898,385.182 418.07,383.931 417.966,381.698 417.106,378.116 418.417,376.781 
					420.587,378.346 421.66,380.115 421.853,382.775 				"/>
				<polygon style="opacity:0.3;" points="425.048,383.871 425.762,386.848 422.153,386.905 423.848,383.573 				"/>
				<polygon style="opacity:0.4;" points="427.207,385.342 426.331,383.693 425.048,383.871 425.762,386.848 				"/>
				<polygon style="opacity:0.3;" points="429.766,384.929 429.038,383.318 426.331,383.693 427.207,385.342 				"/>
				<polygon style="opacity:0.4;" points="431.309,384.68 430.917,383.057 429.038,383.318 429.766,384.929 				"/>
				<polygon style="opacity:0.3;" points="434.085,381.571 430.917,383.057 431.309,384.68 434.307,383.424 				"/>
				<polygon style="opacity:0.05;" points="428.517,377.431 428.535,378.55 426.799,378.118 423.052,380.28 423.915,382.344 
					422.624,380.173 422.049,377.853 422.664,377.088 424.207,375.644 424.593,372.722 427.175,375.093 				"/>
			</g>
		</g>
		<polygon style="opacity:0.3;fill:#FFFFFF;" points="414.311,378.922 416.355,377.019 417.044,374.801 421.514,372.387 
			424.593,372.722 427.097,375.021 429.564,372.724 430.523,369.637 436.744,366.277 441.031,366.743 444.624,370.043 
			446.936,372.166 446.936,372.167 451.109,375.999 453.1,376.527 454.243,379.06 454.55,381.639 450.378,383.387 444.669,384.309 
			442.658,386.405 437.634,386.484 435.888,384.085 434.302,383.384 434.307,383.424 431.309,384.68 427.207,385.342 
			425.762,386.848 422.153,386.905 420.898,385.182 418.07,383.931 417.635,383.299 413.446,381.573 		"/>
	</g>
</g>
<g id="Wall">
	<g>
		<g>
			<path style="fill:#BA68C8;" d="M115.479,23.433L98.26,33.439l-0.685,241.737l285.963,165.101l17.218-10.006l0.685-241.736
				L115.479,23.433z M197.577,141.498l-1.375-1.348l-0.283-0.826L197.577,141.498z M306.611,335.449l-6.326,3.676l0.004,0.028
				l-2.514-4.154l-23.284-1.936l-10.693-21.523l-10.748-0.448l-7.127-13.906l-13.297-14.319l-17.218,10.006l-0.83,1.763
				l-4.476-2.584l-3.55-11.642l-16.08-15.238l0.029-10.335l-4.009-5.905l4.601,1.336l17.219-10.006l-5.141-30.866l-7.16-2.213
				l-1.053-5.758l15.426-8.965l0.055-19.501l-14.309-8.261l-0.779-1.741l15.141-8.799l-9.321-9.136l15.471-6.862l8.93,9.829
				l14.008-8.14l8.867,5.555l7.521,30.967l12.53-1.874l14.864,23.452l-5.609,12.782l24.215,12.528l-3.884,2.152l-17.218,10.006
				l12.491,19.138l8.943,5.163l1.429,9.468l-7.442,4.325l8.747,15.193l-4.621,4.459l9.091,16.253l-10.947,6.362L306.611,335.449z"/>
			<path style="opacity:0.1;" d="M115.479,23.433L98.26,33.439l-0.685,241.737l285.963,165.101l17.218-10.006l0.685-241.736
				L115.479,23.433z M197.577,141.498l-1.375-1.348l-0.283-0.826L197.577,141.498z M306.611,335.449l-6.326,3.676l0.004,0.028
				l-2.514-4.154l-23.284-1.936l-10.693-21.523l-10.748-0.448l-7.127-13.906l-13.297-14.319l-17.218,10.006l-0.83,1.763
				l-4.476-2.584l-3.55-11.642l-16.08-15.238l0.029-10.335l-4.009-5.905l4.601,1.336l17.219-10.006l-5.141-30.866l-7.16-2.213
				l-1.053-5.758l15.426-8.965l0.055-19.501l-14.309-8.261l-0.779-1.741l15.141-8.799l-9.321-9.136l15.471-6.862l8.93,9.829
				l14.008-8.14l8.867,5.555l7.521,30.967l12.53-1.874l14.864,23.452l-5.609,12.782l24.215,12.528l-3.884,2.152l-17.218,10.006
				l12.491,19.138l8.943,5.163l1.429,9.468l-7.442,4.325l8.747,15.193l-4.621,4.459l9.091,16.253l-10.947,6.362L306.611,335.449z"/>
			<polygon style="opacity:0.2;" points="190.503,254.837 173.284,264.844 173.255,275.179 190.474,265.173 			"/>
			<polygon style="opacity:0.3;" points="186.494,248.932 183.327,248.013 167.932,256.96 173.284,264.844 190.503,254.837 			"/>
			<polygon style="opacity:0.2;" points="206.554,280.411 189.335,290.417 192.885,302.059 210.103,292.053 			"/>
			<polygon style="opacity:0.3;" points="190.474,265.173 173.255,275.179 189.335,290.417 206.554,280.411 			"/>
			<polygon style="opacity:0.4;" points="167.97,243.553 167.932,256.96 183.327,248.013 			"/>
			<polygon style="opacity:0.1;" points="192.885,302.059 207.199,310.323 214.579,294.637 210.103,292.053 			"/>
			<polygon style="opacity:0.1;" points="232.627,282.868 215.409,292.874 228.705,307.193 245.924,297.187 			"/>
			<polygon style="opacity:0.2;" points="245.924,297.187 228.705,307.193 235.832,321.099 253.051,311.092 			"/>
			<polygon style="opacity:0.3;" points="196.012,207.183 178.794,217.189 185.954,219.402 203.172,209.396 			"/>
			<polygon style="opacity:0.2;" points="203.172,209.396 185.954,219.402 191.095,250.268 208.313,240.262 			"/>
			<polygon style="opacity:0.2;" points="263.798,311.54 246.58,321.547 257.273,343.07 274.492,333.063 			"/>
			<polygon style="opacity:0.1;" points="253.051,311.092 235.832,321.099 246.58,321.547 263.798,311.54 			"/>
			<polygon style="opacity:0.4;" points="194.96,201.425 193.167,202.467 175.266,197.887 178.794,217.189 196.012,207.183 			"/>
			<polygon style="opacity:0.4;" points="195.354,162.957 193.276,164.165 173.574,162.765 178.914,174.705 196.132,164.699 			"/>
			<polygon style="opacity:0.1;" points="274.492,333.063 257.273,343.07 280.557,345.005 297.776,334.999 			"/>
			<polygon style="opacity:0.2;" points="300.289,339.153 297.776,334.999 280.557,345.005 285.906,353.845 301.146,344.988 			"/>
			<polygon style="opacity:0.2;" points="210.386,192.46 210.441,172.96 193.223,182.966 193.167,202.467 194.96,201.425 			"/>
			<polygon style="opacity:0.3;" points="196.132,164.699 178.914,174.705 193.223,182.966 210.441,172.96 			"/>
			<polygon style="opacity:0.2;" points="195.919,139.323 191.442,133.454 173.654,134.607 178.984,150.156 196.202,140.15 			"/>
			<polygon style="opacity:0.1;" points="210.494,154.158 201.174,145.023 200.495,145.323 197.577,141.498 196.202,140.15 
				178.984,150.156 193.276,164.165 195.354,162.957 			"/>
			<polygon style="opacity:0.3;" points="285.906,353.845 301.792,349.39 301.146,344.988 			"/>
			<polygon style="opacity:0.3;" points="307.456,337.514 306.611,335.449 300.285,339.125 			"/>
			<polygon style="opacity:0.3;" points="313.582,316.702 309.507,309.417 298.56,315.779 			"/>
			<polygon style="opacity:0.3;" points="305.067,278.035 303.732,269.187 296.289,273.512 			"/>
			<polygon style="opacity:0.4;" points="229.198,133.344 225.574,147.989 239.582,139.849 			"/>
			<polygon style="opacity:0.3;" points="280.868,235.417 302.405,223.484 301.97,223.259 298.086,225.411 			"/>
			<polygon style="opacity:0.3;fill:#FFFFFF;" points="384.223,198.54 383.538,440.276 400.756,430.27 401.442,188.534 			"/>
			<polygon style="opacity:0.4;fill:#FFFFFF;" points="401.442,188.534 115.479,23.433 98.26,33.439 384.223,198.54 			"/>
			<g style="opacity:0.2;">
				<g>
					<polygon points="157.86,170.751 168.826,176.353 157.093,172.222 149.832,163.77 137.331,157.578 130.042,159.245 
						118.191,148.144 129.415,156.97 136.822,155.814 150.469,162.816 					"/>
				</g>
				<g>
					<polygon points="165.68,202.323 178.179,208.947 165.502,203.192 159.817,197.564 153.1,194.964 149.79,191.289 
						126.237,177.69 116.338,168.889 126.405,176.615 142.218,185.745 142.256,172.555 144.642,164.389 143.192,172.894 
						143.587,186.333 149.197,189.382 153.186,193.641 160.078,195.96 					"/>
				</g>
				<g>
					<polygon points="298.139,177.827 306.428,180.882 297.66,178.956 292.309,171.536 283.077,165.449 277.706,165.485 
						269.046,158.534 277.14,163.753 282.612,164.205 292.685,170.668 					"/>
				</g>
				<g>
					<polygon points="321.826,217.656 329.268,220.548 321.953,218.595 304.562,208.555 302.111,208.442 297.151,204.643 
						292.942,203.945 283.589,197.39 292.815,203.146 296.971,203.235 302.053,207.395 305.006,207.656 309.148,210.196 
						309.487,200.637 308.456,193.135 310.179,201.177 310.151,210.916 					"/>
				</g>
				<g>
					<polygon points="255.112,356.657 265.904,360.851 255.296,358.019 230.076,343.459 226.521,343.295 219.329,337.786 
						213.225,336.774 199.662,327.268 213.041,335.615 219.068,335.745 226.438,341.777 230.72,342.156 236.727,345.839 
						237.219,331.977 235.723,321.099 238.222,332.76 238.182,346.883 					"/>
				</g>
				<g>
					<polygon points="161.701,111.863 170.301,118.419 180.218,124.793 171.051,119.719 162.14,112.764 156.549,111.128 
						157.098,116.361 156.225,119.899 156.701,124.653 169.072,130.211 174.024,134.654 168.832,130.845 156.725,125.642 
						155.743,124.592 152.532,124.197 148.58,121.65 146.89,118.934 136.427,111.145 147.286,118.351 149.227,121.134 
						152.365,123.234 155.569,123.711 155.582,119.309 156.237,115.645 155.608,110.155 					"/>
				</g>
				<g>
					<polygon points="344.425,338.431 357.003,348.021 371.508,357.344 358.1,349.922 345.066,339.749 336.888,337.356 
						337.691,345.01 336.415,350.186 337.11,357.139 355.206,365.269 362.448,371.768 354.855,366.197 337.146,358.586 
						335.7,357.044 331.013,356.472 325.233,352.735 322.761,348.774 307.456,337.381 323.339,347.921 326.178,351.991 
						330.769,355.064 335.455,355.761 335.474,349.323 336.432,343.964 335.512,335.922 					"/>
				</g>
				<g>
					<polygon points="137.153,232.886 140.027,233.784 135.144,224.501 126.397,210.999 112.192,199.433 126.993,210.523 
						135.808,224.271 140.923,233.757 146.184,234.181 157.716,237.474 167.932,243.373 157.808,238.626 146.423,234.973 
						141.67,234.84 145.267,241.896 145.496,246.017 152.04,259.206 144.894,246.085 144.432,241.641 140.541,234.773 
						137.925,234.324 					"/>
				</g>
				<g>
					<polygon points="359.253,272.239 345.065,267.686 339.141,267.521 343.624,276.315 343.91,281.45 352.064,297.887 
						343.159,281.534 342.584,275.997 337.735,267.437 333.658,266.737 325.128,261.467 335.918,275.64 337.562,275.219 
						340.488,276.649 338.182,276.169 336.312,276.803 341.517,281.092 335.796,277.37 323.392,260.439 318.194,253.837 
						306.22,244.875 318.646,253.248 324.07,259.634 333.513,265.086 337.094,266.205 331.008,254.636 320.108,237.809 
						302.405,223.395 320.851,237.215 331.836,254.349 338.211,266.171 344.768,266.699 359.139,270.804 371.87,278.154 					"/>
				</g>
			</g>
			<g>
				<g style="opacity:0.1;">
					<g>
						<g>
							<path d="M354.375,382.26c-0.54-0.312-0.983-0.064-0.985,0.561l-0.017,6.029c-0.002,0.625,0.439,1.384,0.979,1.695
								l15.894,9.177c0.54,0.312,0.983,0.064,0.985-0.561l0.017-6.029c0.002-0.625-0.439-1.384-0.979-1.695L354.375,382.26z"/>
						</g>
						<g>
							<path d="M354.375,402.968c-0.54-0.312-0.983-0.064-0.985,0.561l-0.017,6.029c-0.002,0.625,0.439,1.384,0.979,1.695
								l15.894,9.176c0.54,0.312,0.983,0.064,0.985-0.561l0.017-6.029c0.002-0.625-0.439-1.384-0.979-1.695L354.375,402.968z"/>
						</g>
						<g>
							<path d="M343.809,386.399c-0.54-0.312-0.983-0.064-0.985,0.561l-0.017,6.029c-0.002,0.625,0.439,1.384,0.979,1.695
								l15.894,9.176c0.54,0.312,0.983,0.064,0.985-0.561l0.017-6.029c0.002-0.625-0.439-1.384-0.979-1.695L343.809,386.399z"/>
						</g>
					</g>
					<g style="opacity:0.07;">
						<g>
							<path d="M354.375,382.26c-0.54-0.312-0.983-0.064-0.985,0.561l-0.017,6.029c-0.002,0.625,0.439,1.384,0.979,1.695
								l15.894,9.177c0.54,0.312,0.983,0.064,0.985-0.561l0.017-6.029c0.002-0.625-0.439-1.384-0.979-1.695L354.375,382.26z"/>
						</g>
						<g>
							<path d="M354.375,402.968c-0.54-0.312-0.983-0.064-0.985,0.561l-0.017,6.029c-0.002,0.625,0.439,1.384,0.979,1.695
								l15.894,9.176c0.54,0.312,0.983,0.064,0.985-0.561l0.017-6.029c0.002-0.625-0.439-1.384-0.979-1.695L354.375,402.968z"/>
						</g>
						<g>
							<path d="M343.809,386.399c-0.54-0.312-0.983-0.064-0.985,0.561l-0.017,6.029c-0.002,0.625,0.439,1.384,0.979,1.695
								l15.894,9.176c0.54,0.312,0.983,0.064,0.985-0.561l0.017-6.029c0.002-0.625-0.439-1.384-0.979-1.695L343.809,386.399z"/>
						</g>
					</g>
				</g>
				<g style="opacity:0.1;">
					<g>
						<g>
							<path d="M125.291,231.439c-0.54-0.312-0.983-0.064-0.985,0.561l-0.017,6.029c-0.002,0.625,0.439,1.384,0.979,1.695
								l15.894,9.176c0.54,0.312,0.984,0.064,0.985-0.561l0.017-6.029c0.002-0.625-0.439-1.384-0.979-1.695L125.291,231.439z"/>
						</g>
						<g>
							<path d="M125.291,252.146c-0.54-0.312-0.983-0.064-0.985,0.562l-0.017,6.029c-0.002,0.625,0.439,1.384,0.979,1.695
								l15.894,9.176c0.54,0.312,0.984,0.064,0.985-0.561l0.017-6.029c0.002-0.625-0.439-1.384-0.979-1.695L125.291,252.146z"/>
						</g>
						<g>
							<path d="M114.725,235.577c-0.54-0.312-0.983-0.064-0.985,0.561l-0.017,6.029c-0.002,0.625,0.439,1.384,0.979,1.695
								l15.894,9.176c0.54,0.312,0.983,0.064,0.985-0.561l0.017-6.029c0.002-0.625-0.439-1.384-0.979-1.695L114.725,235.577z"/>
						</g>
					</g>
					<g style="opacity:0.07;">
						<g>
							<path d="M125.291,231.439c-0.54-0.312-0.983-0.064-0.985,0.561l-0.017,6.029c-0.002,0.625,0.439,1.384,0.979,1.695
								l15.894,9.176c0.54,0.312,0.984,0.064,0.985-0.561l0.017-6.029c0.002-0.625-0.439-1.384-0.979-1.695L125.291,231.439z"/>
						</g>
						<g>
							<path d="M125.291,252.146c-0.54-0.312-0.983-0.064-0.985,0.562l-0.017,6.029c-0.002,0.625,0.439,1.384,0.979,1.695
								l15.894,9.176c0.54,0.312,0.984,0.064,0.985-0.561l0.017-6.029c0.002-0.625-0.439-1.384-0.979-1.695L125.291,252.146z"/>
						</g>
						<g>
							<path d="M114.725,235.577c-0.54-0.312-0.983-0.064-0.985,0.561l-0.017,6.029c-0.002,0.625,0.439,1.384,0.979,1.695
								l15.894,9.176c0.54,0.312,0.983,0.064,0.985-0.561l0.017-6.029c0.002-0.625-0.439-1.384-0.979-1.695L114.725,235.577z"/>
						</g>
					</g>
				</g>
				<g style="opacity:0.1;">
					<g>
						<g>
							<path d="M104.583,241.792c-0.54-0.312-0.983-0.064-0.985,0.562l-0.017,6.029c-0.002,0.625,0.439,1.384,0.979,1.695
								l15.894,9.176c0.54,0.312,0.984,0.064,0.985-0.561l0.017-6.029c0.002-0.625-0.439-1.384-0.979-1.695L104.583,241.792z"/>
						</g>
						<g>
							<path d="M104.583,262.5c-0.54-0.311-0.983-0.064-0.985,0.562l-0.017,6.029c-0.002,0.625,0.439,1.384,0.979,1.695
								l15.894,9.176c0.54,0.312,0.984,0.064,0.985-0.561l0.017-6.029c0.002-0.625-0.439-1.384-0.979-1.695L104.583,262.5z"/>
						</g>
					</g>
					<g style="opacity:0.07;">
						<g>
							<path d="M104.583,241.792c-0.54-0.312-0.983-0.064-0.985,0.562l-0.017,6.029c-0.002,0.625,0.439,1.384,0.979,1.695
								l15.894,9.176c0.54,0.312,0.984,0.064,0.985-0.561l0.017-6.029c0.002-0.625-0.439-1.384-0.979-1.695L104.583,241.792z"/>
						</g>
						<g>
							<path d="M104.583,262.5c-0.54-0.311-0.983-0.064-0.985,0.562l-0.017,6.029c-0.002,0.625,0.439,1.384,0.979,1.695
								l15.894,9.176c0.54,0.312,0.984,0.064,0.985-0.561l0.017-6.029c0.002-0.625-0.439-1.384-0.979-1.695L104.583,262.5z"/>
						</g>
					</g>
				</g>
				<g style="opacity:0.1;">
					<g>
						<g>
							<path d="M122.028,179.403c-0.54-0.312-0.983-0.064-0.985,0.561l-0.017,6.029c-0.002,0.625,0.439,1.384,0.979,1.695
								l15.894,9.176c0.54,0.312,0.983,0.064,0.985-0.562l0.017-6.029c0.002-0.625-0.439-1.384-0.979-1.695L122.028,179.403z"/>
						</g>
						<g>
							<path d="M111.463,183.542c-0.54-0.312-0.983-0.064-0.985,0.562l-0.017,6.029c-0.002,0.625,0.439,1.384,0.979,1.695
								l15.894,9.176c0.54,0.312,0.983,0.064,0.985-0.561l0.017-6.029c0.002-0.625-0.439-1.384-0.979-1.695L111.463,183.542z"/>
						</g>
					</g>
					<g style="opacity:0.07;">
						<g>
							<path d="M122.028,179.403c-0.54-0.312-0.983-0.064-0.985,0.561l-0.017,6.029c-0.002,0.625,0.439,1.384,0.979,1.695
								l15.894,9.176c0.54,0.312,0.983,0.064,0.985-0.562l0.017-6.029c0.002-0.625-0.439-1.384-0.979-1.695L122.028,179.403z"/>
						</g>
						<g>
							<path d="M111.463,183.542c-0.54-0.312-0.983-0.064-0.985,0.562l-0.017,6.029c-0.002,0.625,0.439,1.384,0.979,1.695
								l15.894,9.176c0.54,0.312,0.983,0.064,0.985-0.561l0.017-6.029c0.002-0.625-0.439-1.384-0.979-1.695L111.463,183.542z"/>
						</g>
					</g>
				</g>
				<g style="opacity:0.1;">
					<g>
						<g>
							<path d="M115.327,65.134c-0.54-0.312-0.983-0.064-0.985,0.561l-0.017,6.029c-0.002,0.625,0.439,1.384,0.979,1.695
								l15.894,9.177c0.54,0.312,0.984,0.064,0.985-0.562l0.017-6.029c0.002-0.625-0.439-1.384-0.979-1.695L115.327,65.134z"/>
						</g>
						<g>
							<path d="M115.327,85.841c-0.54-0.312-0.983-0.064-0.985,0.561l-0.017,6.028c-0.002,0.625,0.439,1.384,0.979,1.696
								l15.894,9.176c0.54,0.312,0.984,0.064,0.985-0.562l0.017-6.028c0.002-0.625-0.439-1.384-0.979-1.695L115.327,85.841z"/>
						</g>
						<g>
							<path d="M124.763,80.956c-0.54-0.312-0.983-0.064-0.985,0.561l-0.017,6.029c-0.002,0.625,0.439,1.384,0.979,1.695
								l15.894,9.176c0.54,0.312,0.983,0.064,0.985-0.562l0.017-6.028c0.002-0.625-0.439-1.384-0.979-1.696L124.763,80.956z"/>
						</g>
						<g>
							<path d="M104.762,69.272c-0.54-0.312-0.983-0.064-0.985,0.561l-0.017,6.029c-0.002,0.625,0.439,1.384,0.979,1.695
								l15.894,9.177c0.54,0.312,0.983,0.064,0.985-0.562l0.017-6.028c0.002-0.625-0.439-1.384-0.979-1.695L104.762,69.272z"/>
						</g>
					</g>
					<g style="opacity:0.07;">
						<g>
							<path d="M115.327,65.134c-0.54-0.312-0.983-0.064-0.985,0.561l-0.017,6.029c-0.002,0.625,0.439,1.384,0.979,1.695
								l15.894,9.177c0.54,0.312,0.984,0.064,0.985-0.562l0.017-6.029c0.002-0.625-0.439-1.384-0.979-1.695L115.327,65.134z"/>
						</g>
						<g>
							<path d="M115.327,85.841c-0.54-0.312-0.983-0.064-0.985,0.561l-0.017,6.028c-0.002,0.625,0.439,1.384,0.979,1.696
								l15.894,9.176c0.54,0.312,0.984,0.064,0.985-0.562l0.017-6.028c0.002-0.625-0.439-1.384-0.979-1.695L115.327,85.841z"/>
						</g>
						<g>
							<path d="M124.763,80.956c-0.54-0.312-0.983-0.064-0.985,0.561l-0.017,6.029c-0.002,0.625,0.439,1.384,0.979,1.695
								l15.894,9.176c0.54,0.312,0.983,0.064,0.985-0.562l0.017-6.028c0.002-0.625-0.439-1.384-0.979-1.696L124.763,80.956z"/>
						</g>
						<g>
							<path d="M104.762,69.272c-0.54-0.312-0.983-0.064-0.985,0.561l-0.017,6.029c-0.002,0.625,0.439,1.384,0.979,1.695
								l15.894,9.177c0.54,0.312,0.983,0.064,0.985-0.562l0.017-6.028c0.002-0.625-0.439-1.384-0.979-1.695L104.762,69.272z"/>
						</g>
					</g>
				</g>
				<g style="opacity:0.1;">
					<g>
						<g>
							<path d="M145.763,72.461c-0.54-0.312-0.983-0.064-0.985,0.561l-0.017,6.029c-0.002,0.625,0.439,1.384,0.979,1.695
								l15.894,9.177c0.54,0.312,0.984,0.064,0.985-0.562l0.017-6.028c0.002-0.625-0.439-1.384-0.979-1.695L145.763,72.461z"/>
						</g>
						<g>
							<path d="M145.763,93.168c-0.54-0.312-0.983-0.064-0.985,0.562l-0.017,6.029c-0.002,0.625,0.439,1.384,0.979,1.695
								l15.894,9.177c0.54,0.312,0.984,0.064,0.985-0.562l0.017-6.029c0.002-0.625-0.439-1.384-0.979-1.695L145.763,93.168z"/>
						</g>
						<g>
							<path d="M155.199,88.283c-0.54-0.312-0.984-0.064-0.985,0.561l-0.017,6.029c-0.002,0.625,0.439,1.384,0.979,1.696
								l15.894,9.176c0.54,0.312,0.983,0.064,0.985-0.562l0.017-6.029c0.002-0.625-0.439-1.384-0.979-1.695L155.199,88.283z"/>
						</g>
						<g>
							<path d="M135.198,76.599c-0.54-0.312-0.984-0.064-0.985,0.562l-0.017,6.029c-0.002,0.625,0.439,1.384,0.979,1.695
								l15.894,9.176c0.54,0.312,0.983,0.064,0.985-0.562l0.017-6.029c0.002-0.625-0.439-1.384-0.979-1.695L135.198,76.599z"/>
						</g>
					</g>
					<g style="opacity:0.07;">
						<g>
							<path d="M145.763,72.461c-0.54-0.312-0.983-0.064-0.985,0.561l-0.017,6.029c-0.002,0.625,0.439,1.384,0.979,1.695
								l15.894,9.177c0.54,0.312,0.984,0.064,0.985-0.562l0.017-6.028c0.002-0.625-0.439-1.384-0.979-1.695L145.763,72.461z"/>
						</g>
						<g>
							<path d="M145.763,93.168c-0.54-0.312-0.983-0.064-0.985,0.562l-0.017,6.029c-0.002,0.625,0.439,1.384,0.979,1.695
								l15.894,9.177c0.54,0.312,0.984,0.064,0.985-0.562l0.017-6.029c0.002-0.625-0.439-1.384-0.979-1.695L145.763,93.168z"/>
						</g>
						<g>
							<path d="M155.199,88.283c-0.54-0.312-0.984-0.064-0.985,0.561l-0.017,6.029c-0.002,0.625,0.439,1.384,0.979,1.696
								l15.894,9.176c0.54,0.312,0.983,0.064,0.985-0.562l0.017-6.029c0.002-0.625-0.439-1.384-0.979-1.695L155.199,88.283z"/>
						</g>
						<g>
							<path d="M135.198,76.599c-0.54-0.312-0.984-0.064-0.985,0.562l-0.017,6.029c-0.002,0.625,0.439,1.384,0.979,1.695
								l15.894,9.176c0.54,0.312,0.983,0.064,0.985-0.562l0.017-6.029c0.002-0.625-0.439-1.384-0.979-1.695L135.198,76.599z"/>
						</g>
					</g>
				</g>
				<g style="opacity:0.1;">
					<g>
						<g>
							<path d="M329.343,291.572c-0.54-0.312-0.983-0.064-0.985,0.562l-0.017,6.029c-0.002,0.625,0.439,1.384,0.979,1.695
								l15.894,9.176c0.54,0.311,0.983,0.064,0.985-0.561l0.017-6.029c0.002-0.625-0.439-1.384-0.979-1.695L329.343,291.572z"/>
						</g>
						<g>
							<path d="M329.343,312.28c-0.54-0.312-0.983-0.064-0.985,0.562l-0.017,6.029c-0.002,0.625,0.439,1.384,0.979,1.695
								l15.894,9.176c0.54,0.312,0.983,0.064,0.985-0.561l0.017-6.029c0.002-0.625-0.439-1.384-0.979-1.695L329.343,312.28z"/>
						</g>
						<g>
							<path d="M338.779,307.395c-0.54-0.312-0.983-0.064-0.985,0.561l-0.017,6.029c-0.002,0.625,0.439,1.384,0.979,1.695
								l15.894,9.176c0.54,0.312,0.983,0.064,0.985-0.561l0.017-6.029c0.002-0.625-0.439-1.384-0.979-1.695L338.779,307.395z"/>
						</g>
						<g>
							<path d="M318.778,295.711c-0.54-0.312-0.984-0.064-0.985,0.562l-0.017,6.029c-0.002,0.625,0.439,1.384,0.979,1.695
								l15.894,9.176c0.54,0.312,0.984,0.064,0.985-0.561l0.017-6.029c0.002-0.625-0.439-1.384-0.979-1.695L318.778,295.711z"/>
						</g>
					</g>
					<g style="opacity:0.07;">
						<g>
							<path d="M329.343,291.572c-0.54-0.312-0.983-0.064-0.985,0.562l-0.017,6.029c-0.002,0.625,0.439,1.384,0.979,1.695
								l15.894,9.176c0.54,0.311,0.983,0.064,0.985-0.561l0.017-6.029c0.002-0.625-0.439-1.384-0.979-1.695L329.343,291.572z"/>
						</g>
						<g>
							<path d="M329.343,312.28c-0.54-0.312-0.983-0.064-0.985,0.562l-0.017,6.029c-0.002,0.625,0.439,1.384,0.979,1.695
								l15.894,9.176c0.54,0.312,0.983,0.064,0.985-0.561l0.017-6.029c0.002-0.625-0.439-1.384-0.979-1.695L329.343,312.28z"/>
						</g>
						<g>
							<path d="M338.779,307.395c-0.54-0.312-0.983-0.064-0.985,0.561l-0.017,6.029c-0.002,0.625,0.439,1.384,0.979,1.695
								l15.894,9.176c0.54,0.312,0.983,0.064,0.985-0.561l0.017-6.029c0.002-0.625-0.439-1.384-0.979-1.695L338.779,307.395z"/>
						</g>
						<g>
							<path d="M318.778,295.711c-0.54-0.312-0.984-0.064-0.985,0.562l-0.017,6.029c-0.002,0.625,0.439,1.384,0.979,1.695
								l15.894,9.176c0.54,0.312,0.984,0.064,0.985-0.561l0.017-6.029c0.002-0.625-0.439-1.384-0.979-1.695L318.778,295.711z"/>
						</g>
					</g>
				</g>
				<g style="opacity:0.1;">
					<g>
						<g>
							<path d="M340.772,188.188c-0.54-0.311-0.983-0.064-0.985,0.562l-0.017,6.029c-0.002,0.625,0.439,1.384,0.979,1.695
								l15.894,9.176c0.54,0.312,0.984,0.064,0.985-0.561l0.017-6.029c0.002-0.625-0.439-1.384-0.979-1.696L340.772,188.188z"/>
						</g>
						<g>
							<path d="M330.207,192.326c-0.54-0.311-0.983-0.064-0.985,0.562l-0.017,6.029c-0.002,0.625,0.439,1.384,0.979,1.695
								l15.894,9.176c0.54,0.312,0.983,0.064,0.985-0.561l0.017-6.029c0.002-0.625-0.439-1.384-0.979-1.695L330.207,192.326z"/>
						</g>
					</g>
					<g style="opacity:0.07;">
						<g>
							<path d="M340.772,188.188c-0.54-0.311-0.983-0.064-0.985,0.562l-0.017,6.029c-0.002,0.625,0.439,1.384,0.979,1.695
								l15.894,9.176c0.54,0.312,0.984,0.064,0.985-0.561l0.017-6.029c0.002-0.625-0.439-1.384-0.979-1.696L340.772,188.188z"/>
						</g>
						<g>
							<path d="M330.207,192.326c-0.54-0.311-0.983-0.064-0.985,0.562l-0.017,6.029c-0.002,0.625,0.439,1.384,0.979,1.695
								l15.894,9.176c0.54,0.312,0.983,0.064,0.985-0.561l0.017-6.029c0.002-0.625-0.439-1.384-0.979-1.695L330.207,192.326z"/>
						</g>
					</g>
				</g>
				<g style="opacity:0.1;">
					<g>
						<g>
							<path d="M310.405,352.703c-0.54-0.312-0.983-0.064-0.985,0.561l-0.017,6.029c-0.002,0.625,0.439,1.384,0.979,1.695
								l15.894,9.177c0.54,0.312,0.983,0.064,0.985-0.561l0.017-6.029c0.002-0.625-0.439-1.384-0.979-1.695L310.405,352.703z"/>
						</g>
						<g>
							<path d="M310.405,373.411c-0.54-0.312-0.983-0.064-0.985,0.561l-0.017,6.029c-0.002,0.625,0.439,1.384,0.979,1.695
								l15.894,9.177c0.54,0.312,0.983,0.064,0.985-0.561l0.017-6.029c0.002-0.625-0.439-1.384-0.979-1.695L310.405,373.411z"/>
						</g>
						<g>
							<path d="M319.841,368.526c-0.54-0.312-0.983-0.064-0.985,0.561l-0.017,6.029c-0.002,0.625,0.439,1.384,0.979,1.695
								l15.894,9.177c0.54,0.312,0.983,0.064,0.985-0.561l0.017-6.029c0.002-0.625-0.439-1.384-0.979-1.695L319.841,368.526z"/>
						</g>
						<g>
							<path d="M299.84,356.842c-0.54-0.311-0.983-0.064-0.985,0.561l-0.017,6.029c-0.002,0.625,0.439,1.384,0.979,1.695
								l15.894,9.177c0.54,0.312,0.983,0.064,0.985-0.561l0.017-6.029c0.002-0.625-0.439-1.384-0.979-1.695L299.84,356.842z"/>
						</g>
					</g>
					<g style="opacity:0.07;">
						<g>
							<path d="M310.405,352.703c-0.54-0.312-0.983-0.064-0.985,0.561l-0.017,6.029c-0.002,0.625,0.439,1.384,0.979,1.695
								l15.894,9.177c0.54,0.312,0.983,0.064,0.985-0.561l0.017-6.029c0.002-0.625-0.439-1.384-0.979-1.695L310.405,352.703z"/>
						</g>
						<g>
							<path d="M310.405,373.411c-0.54-0.312-0.983-0.064-0.985,0.561l-0.017,6.029c-0.002,0.625,0.439,1.384,0.979,1.695
								l15.894,9.177c0.54,0.312,0.983,0.064,0.985-0.561l0.017-6.029c0.002-0.625-0.439-1.384-0.979-1.695L310.405,373.411z"/>
						</g>
						<g>
							<path d="M319.841,368.526c-0.54-0.312-0.983-0.064-0.985,0.561l-0.017,6.029c-0.002,0.625,0.439,1.384,0.979,1.695
								l15.894,9.177c0.54,0.312,0.983,0.064,0.985-0.561l0.017-6.029c0.002-0.625-0.439-1.384-0.979-1.695L319.841,368.526z"/>
						</g>
						<g>
							<path d="M299.84,356.842c-0.54-0.311-0.983-0.064-0.985,0.561l-0.017,6.029c-0.002,0.625,0.439,1.384,0.979,1.695
								l15.894,9.177c0.54,0.312,0.983,0.064,0.985-0.561l0.017-6.029c0.002-0.625-0.439-1.384-0.979-1.695L299.84,356.842z"/>
						</g>
					</g>
				</g>
				<g style="opacity:0.1;">
					<g>
						<g>
							<path d="M356.654,212.759c-0.54-0.312-0.983-0.064-0.985,0.561l-0.017,6.029c-0.002,0.625,0.439,1.384,0.979,1.695
								l15.894,9.177c0.54,0.312,0.983,0.064,0.985-0.562l0.017-6.029c0.002-0.625-0.439-1.384-0.979-1.695L356.654,212.759z"/>
						</g>
						<g>
							<path d="M356.654,233.467c-0.54-0.311-0.983-0.064-0.985,0.562l-0.017,6.029c-0.002,0.625,0.439,1.384,0.979,1.695
								l15.894,9.176c0.54,0.312,0.983,0.064,0.985-0.562l0.017-6.029c0.002-0.625-0.439-1.384-0.979-1.695L356.654,233.467z"/>
						</g>
						<g>
							<path d="M346.089,216.898c-0.54-0.311-0.984-0.064-0.985,0.562l-0.017,6.029c-0.002,0.625,0.439,1.384,0.979,1.695
								l15.894,9.176c0.54,0.312,0.983,0.064,0.985-0.562l0.017-6.028c0.002-0.625-0.439-1.384-0.979-1.696L346.089,216.898z"/>
						</g>
					</g>
					<g style="opacity:0.07;">
						<g>
							<path d="M356.654,212.759c-0.54-0.312-0.983-0.064-0.985,0.561l-0.017,6.029c-0.002,0.625,0.439,1.384,0.979,1.695
								l15.894,9.177c0.54,0.312,0.983,0.064,0.985-0.562l0.017-6.029c0.002-0.625-0.439-1.384-0.979-1.695L356.654,212.759z"/>
						</g>
						<g>
							<path d="M356.654,233.467c-0.54-0.311-0.983-0.064-0.985,0.562l-0.017,6.029c-0.002,0.625,0.439,1.384,0.979,1.695
								l15.894,9.176c0.54,0.312,0.983,0.064,0.985-0.562l0.017-6.029c0.002-0.625-0.439-1.384-0.979-1.695L356.654,233.467z"/>
						</g>
						<g>
							<path d="M346.089,216.898c-0.54-0.311-0.984-0.064-0.985,0.562l-0.017,6.029c-0.002,0.625,0.439,1.384,0.979,1.695
								l15.894,9.176c0.54,0.312,0.983,0.064,0.985-0.562l0.017-6.028c0.002-0.625-0.439-1.384-0.979-1.696L346.089,216.898z"/>
						</g>
					</g>
				</g>
			</g>
		</g>
		<g>
			<g>
				<polygon style="fill:#BA68C8;" points="91.054,275.675 102.28,269.151 102.296,263.448 98.699,260.458 87.472,266.982 
					84.28,269.509 87.448,275.396 				"/>
				<polygon style="opacity:0.3;fill:#FFFFFF;" points="102.296,263.448 98.699,260.458 87.472,266.982 91.07,269.972 				"/>
				<polygon style="opacity:0.2;fill:#FFFFFF;" points="91.054,275.675 102.28,269.151 102.296,263.448 91.07,269.972 				"/>
			</g>
			<g>
				<polygon style="fill:#BA68C8;" points="183.413,152.506 190.206,151.925 201.432,145.401 193.407,130.35 184.505,127.793 
					173.278,134.317 				"/>
				<polygon style="opacity:0.3;fill:#FFFFFF;" points="190.206,151.925 201.432,145.401 193.407,130.35 182.181,136.874 				"/>
				<polygon style="opacity:0.4;fill:#FFFFFF;" points="182.181,136.874 193.407,130.35 184.505,127.793 173.278,134.317 				"/>
			</g>
			<g>
				<polygon style="fill:#BA68C8;" points="100.335,309.726 100.341,307.592 97.948,306.21 95.895,297.44 88.489,296.129 
					77.263,302.654 75.549,308.422 73.842,311.588 78.903,322.743 82.299,322.534 89.824,325.185 101.05,318.66 				"/>
				<polygon style="opacity:0.4;fill:#FFFFFF;" points="100.335,309.726 89.108,316.25 89.824,325.185 101.05,318.66 				"/>
				<polygon style="opacity:0.4;fill:#FFFFFF;" points="89.115,314.116 100.341,307.592 97.948,306.21 86.721,312.734 				"/>
				<polygon style="opacity:0.3;fill:#FFFFFF;" points="89.108,316.25 100.335,309.726 100.341,307.592 89.115,314.116 				"/>
				<polygon style="opacity:0.3;fill:#FFFFFF;" points="86.721,312.734 97.948,306.21 95.895,297.44 84.668,303.964 				"/>
				<polygon style="opacity:0.4;fill:#FFFFFF;" points="95.895,297.44 88.489,296.129 77.263,302.654 84.668,303.964 				"/>
			</g>
			<g>
				<polygon style="fill:#BA68C8;" points="308.525,440.776 304.405,430.516 298.94,427.361 296.691,423.105 285.464,429.629 
					282.06,432.876 282.785,440.552 286.558,441.482 290.503,449.011 297.299,447.3 				"/>
				<polygon style="opacity:0.4;fill:#FFFFFF;" points="298.94,427.361 296.691,423.105 285.464,429.629 287.714,433.885 				"/>
				<polygon style="opacity:0.3;fill:#FFFFFF;" points="293.178,437.04 304.405,430.516 298.94,427.361 287.714,433.885 				"/>
				<polygon style="opacity:0.4;fill:#FFFFFF;" points="297.299,447.3 308.525,440.776 304.405,430.516 293.178,437.04 				"/>
			</g>
			<g>
				<polygon style="fill:#BA68C8;" points="189.275,298.545 186.555,292.644 183.163,291.419 171.936,297.943 171.92,303.701 
					175.303,308.042 175.288,313.394 182.068,317.308 193.294,310.784 192.187,301.421 				"/>
				<polygon style="opacity:0.3;fill:#FFFFFF;" points="178.048,305.069 189.275,298.545 186.555,292.644 175.328,299.168 				"/>
				<polygon style="opacity:0.4;fill:#FFFFFF;" points="186.555,292.644 183.163,291.419 171.936,297.943 175.328,299.168 				"/>
				<polygon style="opacity:0.4;fill:#FFFFFF;" points="180.96,307.945 192.187,301.421 189.275,298.545 178.048,305.069 				"/>
				<polygon style="opacity:0.3;fill:#FFFFFF;" points="180.96,307.945 182.068,317.308 193.294,310.784 192.187,301.421 				"/>
			</g>
			<g>
				<polygon style="fill:#BA68C8;" points="116.014,217.582 112.23,222.624 118.369,230.038 129.595,223.514 130.994,218.96 
					127.24,211.058 				"/>
				<polygon style="opacity:0.3;fill:#FFFFFF;" points="118.369,230.038 129.595,223.514 130.994,218.96 119.767,225.484 				"/>
				<polygon style="opacity:0.4;fill:#FFFFFF;" points="116.014,217.582 119.767,225.484 130.994,218.96 127.24,211.058 				"/>
			</g>
			<g>
				<polygon style="fill:#BA68C8;" points="61.892,327.582 59.294,331.872 51.446,335.145 51.421,343.801 57.755,351.227 
					66.849,349.72 66.859,346.077 76.003,344.4 76.028,335.744 75.86,327.476 				"/>
				<polygon style="opacity:0.2;fill:#FFFFFF;" points="66.519,341.122 66.874,341.064 66.859,346.077 76.003,344.4 76.028,335.744 
					66.529,337.486 				"/>
				<polygon style="opacity:0.3;fill:#FFFFFF;" points="66.519,341.122 57.779,342.571 57.755,351.227 66.849,349.72 
					66.859,346.077 66.874,341.064 				"/>
				<polygon style="opacity:0.2;fill:#FFFFFF;" points="51.446,335.145 51.421,343.801 57.755,351.227 57.779,342.571 				"/>
			</g>
			<g>
				<polygon style="fill:#BA68C8;" points="217.069,414.304 217.094,405.647 205.969,401.807 205.489,413.868 205.465,422.524 
					216.131,424.18 				"/>
				<polygon style="opacity:0.3;fill:#FFFFFF;" points="217.069,414.304 217.094,405.647 216.156,415.524 216.131,424.18 				"/>
				<polygon style="opacity:0.2;fill:#FFFFFF;" points="216.156,415.524 205.489,413.868 205.465,422.524 216.131,424.18 				"/>
			</g>
			<g>
				<polygon style="fill:#BA68C8;" points="136.57,356.986 148.214,358.074 150.868,351.725 150.892,343.069 145.721,340.083 
					145.729,337.13 137.84,337.788 132.321,341.859 132.297,350.515 136.585,351.881 				"/>
				<polygon style="opacity:0.2;fill:#FFFFFF;" points="136.595,348.33 137.161,348.383 137.175,343.405 132.321,341.859 
					132.297,350.515 136.585,351.881 				"/>
				<polygon style="opacity:0.2;fill:#FFFFFF;" points="150.868,351.725 150.892,343.069 148.238,349.418 148.214,358.074 				"/>
				<polygon style="opacity:0.3;fill:#FFFFFF;" points="136.585,351.881 136.57,356.986 148.214,358.074 148.238,349.418 
					137.161,348.383 136.595,348.33 				"/>
			</g>
			<g>
				<polygon style="fill:#BA68C8;" points="133.303,409.94 125.099,408.817 122.98,412.994 122.956,421.65 136.89,426.316 
					144.67,421.795 144.695,413.138 136.057,407.028 				"/>
				<polygon style="opacity:0.3;fill:#FFFFFF;" points="136.89,426.316 144.67,421.795 144.695,413.138 136.914,417.66 				"/>
				<polygon style="opacity:0.2;fill:#FFFFFF;" points="122.98,412.994 122.956,421.65 136.89,426.316 136.914,417.66 				"/>
			</g>
			<g>
				<polygon style="fill:#BA68C8;" points="230.406,406.655 230.86,402.22 230.885,393.564 229.066,389.696 223.379,390.315 
					223.094,392.444 219.135,392.781 219.124,396.715 214.745,399.259 214.721,407.916 219.404,409.121 223.046,408.969 				"/>
				<polygon style="opacity:0.3;fill:#FFFFFF;" points="230.86,402.22 230.885,393.564 230.43,397.999 230.406,406.655 				"/>
				<polygon style="opacity:0.2;fill:#FFFFFF;" points="230.406,406.655 230.43,397.999 223.07,400.312 223.046,408.969 				"/>
				<polygon style="opacity:0.3;fill:#FFFFFF;" points="223.07,400.312 219.429,400.465 219.404,409.121 223.046,408.969 				"/>
				<polygon style="opacity:0.2;fill:#FFFFFF;" points="219.395,400.457 219.114,400.384 214.745,399.259 214.721,407.916 
					219.404,409.121 219.429,400.465 				"/>
			</g>
			<g>
				<polygon style="fill:#BA68C8;" points="269.663,385.498 256.583,384.805 251.433,387.216 251.409,395.872 254.061,401.345 
					264.66,398.139 269.639,394.154 				"/>
				<polygon style="opacity:0.3;fill:#FFFFFF;" points="269.663,385.498 264.685,389.483 264.66,398.139 269.639,394.154 				"/>
				<polygon style="opacity:0.2;fill:#FFFFFF;" points="254.086,392.689 254.061,401.345 264.66,398.139 264.685,389.483 				"/>
				<polygon style="opacity:0.3;fill:#FFFFFF;" points="251.433,387.216 251.409,395.872 254.061,401.345 254.086,392.689 				"/>
			</g>
			<g>
				<polygon style="fill:#BA68C8;" points="288.485,269.336 288.51,260.68 285.698,258.143 278.746,258.5 278.43,262.367 
					278.405,271.023 283.555,272.202 				"/>
				<polygon style="opacity:0.2;fill:#FFFFFF;" points="288.485,269.336 288.51,260.68 283.579,263.545 283.555,272.202 				"/>
				<polygon style="opacity:0.3;fill:#FFFFFF;" points="283.579,263.545 278.43,262.367 278.405,271.023 283.555,272.202 				"/>
			</g>
			<g>
				<polygon style="fill:#BA68C8;" points="293.676,319.719 282.594,314.814 277.584,315.668 274.535,328.73 279.664,333.778 
					282.24,343.086 293.607,341.736 298.618,340.883 298.686,331.495 293.829,329.626 				"/>
				<polygon style="opacity:0.3;fill:#FFFFFF;" points="282.24,343.086 293.607,341.736 298.618,340.883 287.25,342.232 				"/>
				<polygon style="opacity:0.3;fill:#FFFFFF;" points="284.675,332.924 279.664,333.778 282.24,343.086 287.25,342.232 				"/>
				<polygon style="opacity:0.2;fill:#FFFFFF;" points="279.546,327.876 274.535,328.73 279.664,333.778 284.675,332.924 				"/>
				<polygon style="opacity:0.3;fill:#FFFFFF;" points="282.594,314.814 277.584,315.668 274.535,328.73 279.546,327.876 				"/>
			</g>
			<g>
				<polygon style="fill:#BA68C8;" points="168.342,202.875 167.331,200.5 164.265,201.023 159.276,194.648 154.265,195.502 
					148.273,203.074 149.771,211.557 150.034,217.137 159.012,223.352 164.023,222.499 166.388,218.133 173.103,211.902 				"/>
				<polygon style="opacity:0.2;fill:#FFFFFF;" points="153.284,202.22 148.273,203.074 149.771,211.557 154.782,210.704 				"/>
				<polygon style="opacity:0.3;fill:#FFFFFF;" points="159.276,194.648 154.265,195.502 148.273,203.074 153.284,202.22 				"/>
				<polygon style="opacity:0.2;fill:#FFFFFF;" points="150.034,217.137 159.012,223.352 164.023,222.499 155.045,216.284 				"/>
				<polygon style="opacity:0.3;fill:#FFFFFF;" points="154.782,210.704 149.771,211.557 150.034,217.137 155.045,216.284 				"/>
			</g>
			<g>
				<polygon style="fill:#BA68C8;" points="148.249,257.244 143.238,258.097 136.174,262.176 136.52,270.871 145.129,273.101 
					150.14,272.248 152.449,267.115 147.799,263.808 				"/>
				<polygon style="opacity:0.2;fill:#FFFFFF;" points="148.249,257.244 143.238,258.097 136.174,262.176 141.185,261.323 				"/>
				<polygon style="opacity:0.2;fill:#FFFFFF;" points="136.52,270.871 145.129,273.101 150.14,272.248 141.531,270.018 				"/>
				<polygon style="opacity:0.3;fill:#FFFFFF;" points="141.185,261.323 136.174,262.176 136.52,270.871 141.531,270.018 				"/>
			</g>
			<g>
				<polygon style="fill:#BA68C8;" points="261.867,320.21 266.516,311.286 253.546,304.364 248.535,305.217 240.853,313.225 
					256.856,321.063 				"/>
				<polygon style="opacity:0.3;fill:#FFFFFF;" points="261.867,320.21 245.864,312.372 240.853,313.225 256.856,321.063 				"/>
				<polygon style="opacity:0.2;fill:#FFFFFF;" points="253.546,304.364 248.535,305.217 240.853,313.225 245.864,312.372 				"/>
			</g>
			<g>
				<polygon style="fill:#BA68C8;" points="234.136,374.775 239.147,373.922 243.264,363.751 235.394,357.381 230.383,358.235 
					228.104,359.551 226.278,358.564 221.267,359.418 220.336,367.155 224.518,374.78 229.529,373.926 230.54,372.792 				"/>
				<polygon style="opacity:0.3;fill:#FFFFFF;" points="228.015,371.165 225.347,366.301 220.336,367.155 224.518,374.78 
					229.529,373.926 228.199,371.5 				"/>
				<polygon style="opacity:0.2;fill:#FFFFFF;" points="225.959,361.212 226.014,360.757 226.278,358.564 221.267,359.418 
					220.336,367.155 225.347,366.301 				"/>
			</g>
			<g>
				<polygon style="fill:#BA68C8;" points="154.33,160.256 149.319,161.109 148.742,174.699 153.752,173.845 160.409,171.567 
					161.347,164.959 				"/>
				<polygon style="opacity:0.2;fill:#FFFFFF;" points="148.742,174.699 153.752,173.845 154.33,160.256 149.319,161.109 				"/>
			</g>
			<g>
				<polygon style="fill:#BA68C8;" points="263.945,347.639 258.935,348.493 258.357,362.082 263.368,361.228 270.025,358.95 
					270.963,352.342 				"/>
				<polygon style="opacity:0.2;fill:#FFFFFF;" points="258.357,362.082 263.368,361.228 263.945,347.639 258.935,348.493 				"/>
			</g>
			<g>
				<polygon style="fill:#BA68C8;" points="165.322,372.717 155.184,377.016 158.444,381.362 155.062,388.302 160.16,392.839 
					165.171,391.986 174.592,381.872 170.333,371.863 				"/>
				<polygon style="opacity:0.3;fill:#FFFFFF;" points="165.322,372.717 155.184,377.016 160.195,376.162 170.333,371.863 				"/>
				<polygon style="opacity:0.2;fill:#FFFFFF;" points="158.444,381.362 163.455,380.509 160.195,376.162 155.184,377.016 				"/>
				<polygon style="opacity:0.2;fill:#FFFFFF;" points="160.16,392.839 165.171,391.986 160.073,387.448 155.062,388.302 				"/>
				<polygon style="opacity:0.3;fill:#FFFFFF;" points="155.062,388.302 160.073,387.448 163.455,380.509 158.444,381.362 				"/>
			</g>
			<g>
				<polygon style="fill:#BA68C8;" points="295.228,385.592 290.445,382.351 285.435,383.205 282.395,385.985 285.12,392.389 
					289.634,393.075 292.171,399.037 297.182,398.184 303.962,394.269 298.707,385.234 				"/>
				<polygon style="opacity:0.2;fill:#FFFFFF;" points="289.634,393.075 292.171,399.037 297.182,398.184 294.645,392.221 				"/>
				<polygon style="opacity:0.3;fill:#FFFFFF;" points="290.131,391.536 285.12,392.389 289.634,393.075 294.645,392.221 				"/>
				<polygon style="opacity:0.2;fill:#FFFFFF;" points="287.406,385.132 282.395,385.985 285.12,392.389 290.131,391.536 				"/>
				<polygon style="opacity:0.3;fill:#FFFFFF;" points="290.445,382.351 285.435,383.205 282.395,385.985 287.406,385.132 				"/>
			</g>
			<g>
				<polygon style="fill:#BA68C8;" points="133.043,133.058 128.261,129.818 123.25,130.671 120.21,133.452 122.935,139.856 
					127.45,140.542 129.986,146.503 134.997,145.65 141.777,141.736 136.523,132.701 				"/>
				<polygon style="opacity:0.2;fill:#FFFFFF;" points="127.45,140.542 129.986,146.503 134.997,145.65 132.46,139.688 				"/>
				<polygon style="opacity:0.3;fill:#FFFFFF;" points="127.946,139.002 122.935,139.856 127.45,140.542 132.46,139.688 				"/>
				<polygon style="opacity:0.2;fill:#FFFFFF;" points="125.221,132.598 120.21,133.452 122.935,139.856 127.946,139.002 				"/>
				<polygon style="opacity:0.3;fill:#FFFFFF;" points="128.261,129.818 123.25,130.671 120.21,133.452 125.221,132.598 				"/>
			</g>
			<g>
				<polygon style="fill:#BA68C8;" points="179.085,234.054 174.074,234.908 173.725,245.105 181.7,245.844 186.711,244.99 
					185.564,238.247 				"/>
				<polygon style="opacity:0.2;fill:#FFFFFF;" points="173.725,245.105 181.7,245.844 186.711,244.99 178.736,244.251 				"/>
				<polygon style="opacity:0.3;fill:#FFFFFF;" points="179.085,234.054 174.074,234.908 173.725,245.105 178.736,244.251 				"/>
			</g>
			<g>
				<polygon style="fill:#BA68C8;" points="150.677,318.275 153.232,324.28 158.243,323.427 160.921,319.797 161.555,316.323 
					160.149,308.056 154.325,304.909 148.747,304.244 143.736,305.097 143.261,310.769 146.04,312.338 145.58,316.22 				"/>
				<polygon style="opacity:0.3;fill:#FFFFFF;" points="153.232,324.28 158.243,323.427 155.688,317.421 150.677,318.275 				"/>
				<polygon style="opacity:0.2;fill:#FFFFFF;" points="150.677,318.275 155.688,317.421 150.591,315.366 145.58,316.22 				"/>
				<polygon style="opacity:0.3;fill:#FFFFFF;" points="150.591,315.366 151.051,311.484 146.04,312.338 145.58,316.22 				"/>
				<polygon style="opacity:0.2;fill:#FFFFFF;" points="148.271,309.915 143.261,310.769 146.04,312.338 151.051,311.484 				"/>
				<polygon style="opacity:0.3;fill:#FFFFFF;" points="148.747,304.244 143.736,305.097 143.261,310.769 148.271,309.915 				"/>
			</g>
			<g>
				<polygon style="fill:#BA68C8;" points="270.462,203.866 275.473,203.012 273.615,191.185 269.432,184.112 264.421,184.965 
					260.503,196.716 262.541,202.977 				"/>
				<polygon style="opacity:0.2;fill:#FFFFFF;" points="270.462,203.866 275.473,203.012 267.552,202.123 262.541,202.977 				"/>
				<polygon style="opacity:0.3;fill:#FFFFFF;" points="267.552,202.123 265.513,195.863 260.503,196.716 262.541,202.977 				"/>
				<polygon style="opacity:0.2;fill:#FFFFFF;" points="269.432,184.112 264.421,184.965 260.503,196.716 265.513,195.863 				"/>
			</g>
			<g>
				<polygon style="fill:#BA68C8;" points="253.531,167.034 256.279,162.953 253.58,156.61 248.569,157.463 244.541,158.537 
					243.423,165.217 248.52,167.887 				"/>
				<polygon style="opacity:0.3;fill:#FFFFFF;" points="253.58,156.61 248.569,157.463 244.541,158.537 249.552,157.683 				"/>
				<polygon style="opacity:0.2;fill:#FFFFFF;" points="253.531,167.034 248.433,164.363 243.423,165.217 248.52,167.887 				"/>
				<polygon style="opacity:0.3;fill:#FFFFFF;" points="249.552,157.683 244.541,158.537 243.423,165.217 248.433,164.363 				"/>
			</g>
			<g>
				<polygon style="fill:#BA68C8;" points="182.93,355.946 182.728,350.331 186.691,345.312 177.712,342.033 172.701,342.887 
					171.801,355.658 177.919,356.8 				"/>
				<polygon style="opacity:0.3;fill:#FFFFFF;" points="182.93,355.946 176.811,354.805 171.801,355.658 177.919,356.8 				"/>
				<polygon style="opacity:0.2;fill:#FFFFFF;" points="177.712,342.033 172.701,342.887 171.801,355.658 176.811,354.805 				"/>
			</g>
			<g>
				<polygon style="fill:#BA68C8;" points="133.801,360.58 133.812,356.502 135.873,354.192 135.898,345.535 125.948,342.756 
					118.419,345.167 113.141,346.271 111.12,353.337 111.095,361.993 116.358,362.862 125.338,366.354 131.955,361.652 				"/>
				<polygon style="opacity:0.2;fill:#FFFFFF;" points="133.825,351.924 133.812,356.502 135.873,354.192 135.898,345.535 
					131.432,350.542 131.424,353.391 131.979,352.996 				"/>
				<polygon style="opacity:0.3;fill:#FFFFFF;" points="131.979,352.996 131.955,361.652 133.801,360.58 133.812,356.502 
					133.825,351.924 				"/>
				<polygon style="opacity:0.3;fill:#FFFFFF;" points="111.12,353.337 111.095,361.993 116.358,362.862 116.382,354.206 				"/>
				<polygon style="opacity:0.3;fill:#FFFFFF;" points="131.979,352.996 131.424,353.391 125.363,357.698 125.338,366.354 
					131.955,361.652 				"/>
				<polygon style="opacity:0.2;fill:#FFFFFF;" points="116.382,354.206 116.358,362.862 125.338,366.354 125.363,357.698 				"/>
			</g>
		</g>
	</g>
</g>
<g id="Character">
	<g>
		<polygon style="fill:#263238;" points="265.156,233.411 244.429,217.224 242.414,220.867 263.453,237.364 		"/>
		<path style="fill:#455A64;" d="M227.039,247.986l-11.63-1.062c1.466,7.382,4.065,17.614,4.065,17.614l13.982-4.081
			L227.039,247.986z"/>
		<g>
			<path d="M193.076,358.452c2.594,0.472,5.341,0.06,7.682-1.153c1.725-0.893,3.204-2.188,4.827-3.257
				c1.277-0.842,2.449-1.402,3.948-1.604c1.576-0.212,3.155-0.538,4.606-1.21c1.537-0.712,2.979-1.712,3.84-3.638
				c0.296-0.662,0.278-1.41-0.008-2.056c0.115,0.125,0.237,0.261,0.366,0.41c0.657,0.758,0.831,1.837,0.422,2.753
				c-0.878,1.965-2.35,2.986-3.919,3.712c-1.48,0.686-3.092,1.018-4.7,1.235c-1.53,0.206-2.725,0.778-4.029,1.637
				c-1.656,1.091-3.166,2.412-4.926,3.324c-2.389,1.237-5.192,1.658-7.84,1.176c-1.102-0.201-2.263-0.617-2.87-1.558
				c-0.316-0.49-0.434-1.072-0.401-1.655c0.053,0.123,0.116,0.242,0.189,0.357C190.859,357.848,191.996,358.255,193.076,358.452z"/>
			<path style="fill:#263238;" d="M217.565,344.893c0.169,0.195,0.303,0.412,0.405,0.642c0.287,0.646,0.304,1.394,0.008,2.056
				c-0.861,1.926-2.303,2.925-3.84,3.638c-1.451,0.672-3.03,0.998-4.606,1.21c-1.499,0.202-2.67,0.762-3.948,1.604
				c-1.622,1.069-3.102,2.364-4.827,3.257c-2.341,1.213-5.088,1.625-7.682,1.153c-1.08-0.197-2.217-0.604-2.813-1.526
				c-0.074-0.114-0.137-0.234-0.189-0.357c-0.369-0.863-0.235-1.919,0.227-2.752c0.528-0.952,1.419-1.652,2.362-2.196
				c0.943-0.544,1.956-0.959,2.9-1.501c1.551-0.891,2.884-2.108,4.204-3.315c1.224-1.12,2.448-2.239,3.671-3.359l13.284,0.533
				C216.721,343.978,217.129,344.39,217.565,344.893z"/>
		</g>
		<g>
			<path d="M290.885,295.61c0.011-2.637-0.875-5.269-2.479-7.362c-1.181-1.542-2.715-2.772-4.051-4.182
				c-1.052-1.111-1.809-2.166-2.27-3.606c-0.485-1.515-1.081-3.012-1.997-4.323c-0.97-1.389-2.207-2.634-4.254-3.144
				c-0.704-0.176-1.437-0.027-2.022,0.368c0.103-0.135,0.215-0.279,0.34-0.432c0.632-0.78,1.663-1.14,2.636-0.897
				c2.088,0.521,3.351,1.791,4.341,3.209c0.934,1.337,1.543,2.866,2.038,4.411c0.47,1.47,1.243,2.547,2.317,3.68
				c1.364,1.439,2.929,2.695,4.134,4.268c1.637,2.136,2.541,4.822,2.53,7.513c-0.005,1.12-0.211,2.336-1.031,3.099
				c-0.427,0.397-0.979,0.615-1.559,0.684c0.112-0.073,0.219-0.156,0.318-0.249C290.679,297.899,290.881,296.708,290.885,295.61z"/>
			<path style="fill:#263238;" d="M273.251,273.871c0.162-0.2,0.353-0.37,0.561-0.511c0.585-0.395,1.319-0.544,2.022-0.368
				c2.046,0.511,3.283,1.755,4.254,3.144c0.916,1.311,1.512,2.808,1.997,4.323c0.461,1.44,1.218,2.496,2.27,3.606
				c1.336,1.41,2.87,2.64,4.051,4.182c1.604,2.093,2.49,4.725,2.479,7.362c-0.005,1.098-0.207,2.289-1.011,3.037
				c-0.099,0.093-0.206,0.175-0.318,0.249c-0.785,0.515-1.848,0.567-2.749,0.258c-1.03-0.353-1.875-1.108-2.576-1.941
				c-0.701-0.833-1.286-1.758-1.985-2.592c-1.148-1.371-2.581-2.471-4-3.559c-1.316-1.009-2.633-2.018-3.949-3.027l-1.8-13.172
				C272.498,274.862,272.832,274.388,273.251,273.871z"/>
		</g>
		<path style="fill:#37474F;" d="M245.091,271.651l0.607,16.282c7.383-7.484,26.598-14.462,26.598-14.462
			c7.281,5.36,5.664,11.529,2.933,14.462c-15.068,8.192-32.261,19.215-36.205,18.305c-3.944-0.91-9.157-6.886-12.972-18.158
			l3.421-18.894L245.091,271.651z"/>
		<g>
			<path style="fill:#455A64;" d="M252.878,245.762c2.427,11.934,1.517,17.193-7.787,25.89
				c-9.304,8.697-24.575,20.934-24.575,20.934c3.742,12.136-1.82,28.115-2.023,34.284c-0.202,6.169-1.057,17.508-1.057,17.508
				c-8.495,4.551-13.999-0.932-13.999-0.932l0.291-53.588c0-4.696,1.702-9.233,4.79-12.771l18.52-21.212v-7.888L252.878,245.762z"/>
		</g>
		<g>
			<path style="fill:#FFA8A7;" d="M187.433,214.283c-1.596,0.54-3.328,0.655-4.986,0.358c-0.002-3.23,0.021-6.829-0.261-11.523
				c-0.607-10.113,2.124-15.675,4.382-17.698c2.258-2.022,6.135-2.056,7.585-0.775c1.449,1.281-2.09,5.933-2.596,9.978
				c2.023-2.36,3.034-3.169,4.956-1.719c0,0-2.057,2.393-2.461,4.416c-0.405,2.023-2.562,3.438-3.169,5.12
				c-0.467,1.295,0.026,5.474,0.77,9.053C190.512,212.758,189.049,213.736,187.433,214.283z"/>
			<path style="fill:#E0E0E0;" d="M187.433,214.283c1.616-0.547,3.078-1.525,4.221-2.791c0.222,1.068,0.465,2.085,0.713,2.952
				c0,0,7.821-10.72,9.574-12.743c1.753-2.023,3.371-6.877,11.04-7.77l-0.927,18.895c0,0-15.507,17.664-20.833,20.631
				c-5.326,2.967-7.079-0.876-8.158-8.023c-0.578-3.83-0.614-7.064-0.616-10.793C184.105,214.938,185.837,214.823,187.433,214.283z"
				/>
			<path style="opacity:0.1;" d="M193.564,225.889c1.214-4.399-0.607-9.86-1.197-11.445c0,0,0.526-0.721,1.333-1.821
				C194.653,214.462,196.467,220.128,193.564,225.889z"/>
		</g>
		<path style="fill:#F0F0F0;" d="M235.888,193.527c4.45-0.607,9.203,0.152,14.057,0.961c1.113,13.147,0.622,26.825,0,31.755
			l3.843,20.631c-15.069,9.102-34.284,5.057-38.127,2.427c-6.068-23.665-7.585-46.015-2.68-55.37l11.981-2.016L235.888,193.527z"/>
		<path style="fill:#E6E6E6;" d="M237.778,192.273c4.45-0.607,7.313,1.406,12.167,2.215c1.113,13.147,0.622,26.825,0,31.755
			l3.843,20.631c-15.069,9.102-34.284,5.057-38.127,2.427c-6.068-23.665-7.585-46.015-2.68-55.37l11.981-2.016L237.778,192.273z"/>
		<g>
			<path style="fill:#BA68C8;" d="M226.278,202.727c1.174-0.929,2.348-1.859,3.521-2.788c-1.088-0.548-2.275-0.976-3.444-1.316
				l-1.393,0.688L226.278,202.727z"/>
			<polygon style="fill:#BA68C8;" points="222.501,202.439 221.725,201.956 220.427,199.127 221.932,198.623 222.839,199.309 			"/>
			<g>
				<g>
					<path style="fill:#BA68C8;" d="M225.337,204.668c2.655,10.556,15.028,17.438,25.23,16.701c1.451-0.105,2.915,0.212,4.095,1.062
						c1.883,1.356,3.157,2.788,3.947,3.851c0.631,0.849,0.309,2.057-0.664,2.47c-2.235,0.95-4.864,1.661-6.964,2.14
						c-2.482,0.566-5.073,0.514-7.518-0.194c-18.533-5.365-21.107-17.236-20.604-26.03H225.337z"/>
					<path style="opacity:0.3;" d="M222.838,205.144c0.007-0.158,0.012-0.319,0.021-0.475h2.478
						c0.013,0.053,0.031,0.105,0.045,0.158c-0.337,0.275-0.747,0.459-1.177,0.523C223.741,205.418,223.262,205.34,222.838,205.144z"
						/>
				</g>
				<path style="fill:#BA68C8;" d="M224.962,199.312c-0.701-0.116-1.421-0.117-2.123-0.002c-0.592,0.75-1.003,1.698-1.115,2.646
					c0.224,1.465,1.134,2.712,1.134,2.712c0.641,0.489,2.478,0,2.478,0c0.658-0.9,1.028-1.539,1.235-1.97
					c0.212-0.44,0.211-0.956-0.006-1.393C225.932,200.025,224.962,199.312,224.962,199.312z"/>
			</g>
		</g>
		<path style="opacity:0.3;" d="M218.258,253.018c0.964,1.406,3.937,3.776,7.475,4.352l-6.26,7.169
			c0.793-3.245,3.123-6.298,3.123-6.298C219.503,256.553,218.258,253.018,218.258,253.018z"/>
		<path style="fill:#E0E0E0;" d="M224.005,198.988c-2.857-0.759-4.677,2.402-4.677,2.402c-0.177-7.003,3.464-9.683,3.464-9.683
			L224.005,198.988z"/>
		<g>
			<path style="fill:#37474F;" d="M236.157,164.401c1.274-0.841,2.549-1.683,3.823-2.524c-0.659-0.718-1.659-1.281-2.63-1.205
				c-0.567,0.044-1.112,0.319-1.484,0.75c-0.372,0.43-0.566,1.01-0.527,1.577c-0.122-2.283-2.092-4.339-4.151-5.333
				s-4.43-1.134-6.711-0.978c-2.281,0.156-4.54,0.589-6.825,0.673c-2.634,0.097-5.283-0.28-7.788-1.098
				c-1.224-0.4-2.443,0.72-2.068,1.951c0.438,1.438,1.177,2.777,2.171,3.948c-0.513,0.155-1.069,0.212-1.626,0.18
				c-1.3-0.075-2.172,1.351-1.476,2.452c1.105,1.748,2.914,2.816,4.076,3.291c6.06,9.578,22.418,18.12,22.418,18.12
				c1.111-0.066,2.069-0.877,2.612-1.848c0.543-0.971,0.744-2.091,0.927-3.188c0.703-4.196,1.284-8.413,1.741-12.643
				c0.097-0.895,0.185-1.826-0.115-2.676c-0.299-0.849-1.102-1.592-2-1.517"/>
			<g>
				<path style="fill:#FFA8A7;" d="M234.573,179.217c0.438,3.948,1.315,10.771,1.315,10.771c-3.439,4.652-10.113,5.663-11.883,9.001
					c-1.972-6.624-2.225-11.377-2.225-11.377l11.377-8.95L234.573,179.217z"/>
				<path style="fill:#F28F8F;" d="M233.157,178.661l0.289,0.113c0.134,3.438-1.159,6.921-3.557,9.394
					c-1.996,2.058-4.715,3.377-7.554,3.748c-0.466-2.673-0.555-4.305-0.555-4.305L233.157,178.661z"/>
			</g>
			<path style="fill:#FFA8A7;" d="M210.94,168.083c-0.865,6.546-0.122,13.296,2.125,19.503c0.575,1.588,2.117,2.613,3.806,2.617
				c8.64,0.018,15.453-2.951,16.642-10.632c0.655,1.16,2.523,1.495,3.765,1.013c1.242-0.482,2.138-1.59,2.769-2.763
				c0.346-0.643,0.634-1.332,0.715-2.058c0.081-0.726-0.063-1.499-0.51-2.077c-0.73-0.945-2.151-1.169-3.257-0.717
				c-1.105,0.452-1.911,1.453-2.397,2.544c-0.185,0.417-0.431,0.926-0.887,0.938c-0.47,0.013-0.744-0.517-0.882-0.967
				c-0.551-1.798-0.791-3.691-0.704-5.569c-1.343,0.227-2.831,0.024-3.955-0.745c-1.124-0.769-1.933-1.986-2.208-3.32
				c-0.675,1.36-2.131,2.368-3.634,2.583c-1.502,0.216-3.096-0.35-4.126-1.464c-0.828,0.911-2.093,1.483-3.306,1.693
				C213.683,168.873,212.026,168.662,210.94,168.083z"/>
			<polygon style="fill:#F28F8F;" points="218.799,175.539 214.847,180.521 218.586,181.76 			"/>
			<path style="fill:#F28F8F;" d="M222.032,184.128c-1.036,0.341-2.072,0.682-3.108,1.023c0.335,0.72,1.364,1.153,2.125,0.928
				C221.811,185.854,222.142,184.915,222.032,184.128z"/>
			<path style="opacity:0.3;" d="M222.032,184.128c-1.036,0.341-2.072,0.682-3.108,1.023c0.335,0.72,1.364,1.153,2.125,0.928
				C221.811,185.854,222.142,184.915,222.032,184.128z"/>
			<path style="fill:#F28F8F;" d="M220.025,186.037c0.342,0.109,0.706,0.136,1.025,0.042c0.598-0.177,0.926-0.794,0.988-1.431
				c-0.414-0.054-0.847,0.025-1.203,0.244C220.424,185.144,220.136,185.57,220.025,186.037z"/>
			<path style="fill:#263238;" d="M224.326,176.507c-0.021,0.614-0.536,1.095-1.149,1.074c-0.614-0.021-1.094-0.536-1.073-1.149
				c0.021-0.614,0.536-1.094,1.149-1.073C223.867,175.378,224.347,175.893,224.326,176.507z"/>
			<path style="fill:#263238;" d="M215.007,175.828c-0.021,0.614-0.536,1.094-1.149,1.073c-0.614-0.021-1.095-0.536-1.074-1.15
				c0.021-0.614,0.536-1.094,1.149-1.074C214.548,174.7,215.028,175.214,215.007,175.828z"/>
			<path style="fill:#263238;" d="M215.299,172.145c-0.936-0.351-1.871-0.702-2.806-1.053c0.341-0.534,1.099-0.774,1.708-0.599
				C214.81,170.666,215.291,171.511,215.299,172.145z"/>
			<path style="fill:#263238;" d="M221.742,172.72c0.982-0.184,1.964-0.367,2.946-0.551c-0.244-0.585-0.948-0.952-1.578-0.887
				C222.479,171.349,221.859,172.097,221.742,172.72z"/>
		</g>
		<path style="fill:#E0E0E0;" d="M235.888,189.988l-0.223-1.755c0,0,0.343-0.001,0.44,0.052c1.201,0.654,3.491,4.214,3.491,4.214
			c-0.809,1.888-4.652,7.787-7.686,9.81c-3.506-1.753-6.034-4.214-7.905-3.32C224.73,194.892,235.888,189.988,235.888,189.988z"/>
		<path style="fill:#263238;" d="M242.688,254.789c-8.418-11.821-26.961-39.171-25.882-61.501l-3.825,0.644
			c-1.593,22.007,15.852,50.717,28.004,65.604L242.688,254.789z"/>
		<g>
			<path style="fill:#BA68C8;" d="M245.341,264.164l25.737-21.68l4.535,16.029c0.063,0.223-0.006,0.428-0.129,0.587l0.004,0.015
				l-0.027,0.024l-0.085,0.076l-25.381,22.69c0.166-0.163,0.25-0.41,0.177-0.667L245.341,264.164z"/>
			<path style="opacity:0.15;" d="M245.341,264.164l25.737-21.68l4.535,16.029c0.063,0.223-0.006,0.428-0.129,0.587l0.004,0.015
				l-0.027,0.024l-0.085,0.076l-25.381,22.69c0.166-0.163,0.25-0.41,0.177-0.667L245.341,264.164z"/>
			<polygon style="fill:#BA68C8;" points="246.445,268.066 242.414,253.822 246.444,268.066 			"/>
			<path style="fill:#BA68C8;" d="M239.676,252.304l-0.026,0.023C239.659,252.319,239.668,252.312,239.676,252.304z"/>
			<path style="fill:#BA68C8;" d="M249.994,281.905L249.994,281.905C249.994,281.905,249.994,281.905,249.994,281.905z"/>
			<path style="fill:#BA68C8;" d="M239.635,252.342l0.016-0.014c-0.005,0.005-0.006,0.012-0.011,0.017L239.635,252.342z"/>
			<polygon style="fill:#BA68C8;" points="272.02,245.816 272.02,245.816 272.02,245.816 			"/>
			<polygon style="fill:#BA68C8;" points="249.982,281.917 249.981,281.913 249.994,281.905 			"/>
			<polygon style="fill:#BA68C8;" points="272.02,245.816 272.021,245.817 272.02,245.816 			"/>
			<path style="fill:#BA68C8;" d="M239.385,253.105c-0.04-0.296,0.069-0.566,0.254-0.761c0.005-0.005,0.006-0.012,0.011-0.017
				l0.026-0.023c0.2-0.186,0.479-0.288,0.779-0.239l0,0c0.94,0.154,1.704,0.839,1.959,1.757l4.03,14.245l3.727,13.172
				c0.073,0.257-0.011,0.504-0.177,0.667l0,0c-0.004,0.004-0.01,0.004-0.014,0.008c-0.166,0.156-0.406,0.233-0.656,0.158
				l-5.036-1.518c-0.769-0.232-1.331-0.891-1.438-1.687L239.385,253.105z"/>
			<path style="opacity:0.3;" d="M239.385,253.105c-0.04-0.296,0.069-0.566,0.254-0.761c0.005-0.005,0.006-0.012,0.011-0.017
				l0.026-0.023c0.2-0.186,0.479-0.288,0.779-0.239l0,0c0.94,0.154,1.704,0.839,1.959,1.757l4.03,14.245l3.727,13.172
				c0.073,0.257-0.011,0.504-0.177,0.667l0,0c-0.004,0.004-0.01,0.004-0.014,0.008c-0.166,0.156-0.406,0.233-0.656,0.158
				l-5.036-1.518c-0.769-0.232-1.331-0.891-1.438-1.687L239.385,253.105z"/>
			<polygon style="fill:#BA68C8;" points="254.37,254.914 258.92,271.239 258.202,271.924 253.804,255.731 			"/>
			<polygon style="fill:#BA68C8;" points="264.02,246.284 268.569,262.609 267.851,263.294 263.453,247.101 			"/>
			<path style="fill:#BA68C8;" d="M265.096,229.597l0.013-0.011c0.011-0.011,0.028-0.014,0.04-0.024
				c0.198-0.171,0.462-0.268,0.749-0.221c0.939,0.154,1.704,0.839,1.959,1.757l3.477,12.289c0.42,1.483-0.055,3.075-1.218,4.086
				l-2.676,2.329l-18.32,15.938c-1.244,1.082-3.19,0.502-3.639-1.084l-3.065-10.834c-0.255-0.917-1.019-1.603-1.959-1.757l0,0
				c-0.3-0.049-0.579,0.054-0.779,0.239L265.096,229.597z"/>
			<path style="opacity:0.2;fill:#FFFFFF;" d="M265.096,229.597l0.013-0.011c0.011-0.011,0.028-0.014,0.04-0.024
				c0.198-0.171,0.462-0.268,0.749-0.221c0.939,0.154,1.704,0.839,1.959,1.757l3.477,12.289c0.42,1.483-0.055,3.075-1.218,4.086
				l-2.676,2.329l-18.32,15.938c-1.244,1.082-3.19,0.502-3.639-1.084l-3.065-10.834c-0.255-0.917-1.019-1.603-1.959-1.757l0,0
				c-0.3-0.049-0.579,0.054-0.779,0.239L265.096,229.597z"/>
		</g>
		<g>
			<path style="fill:#FFA8A7;" d="M280.841,230.794l-0.826,12.439c-1.753,12.406-4.045,14.361-9.709,16.046
				c-5.663,1.685-2.36-5.454-1.618-6.772c0.742-1.318,1.146-3.712,1.146-3.712c-2.798,2.528-3.506,2.259-4.618,1.483
				c-0.438-0.337,1.652-2.157,1.652-2.157c1.213-3.101,4.281-6.574,4.281-6.574l-0.657-10.754H280.841z"/>
			<path style="fill:#E0E0E0;" d="M243.987,193.604c7.981-1.341,13.24,2.683,16.881,5.019c2.632,1.689,12.294,8.976,17.446,12.884
				c2.065,1.566,3.253,4.027,3.198,6.618l-0.282,13.152c-6.068,3.057-10.922-0.449-10.922-0.449l-0.944-9.641
				c0,0-11.221-5.459-18.758-8.898C243.068,208.848,242.124,199.224,243.987,193.604z"/>
		</g>
	</g>
</g>
<g id="Clouds">
	<g>
		<g>
			<path style="fill:#E6E6E6;" d="M381.765,61.902c-5.195-2.999-9.584-1.53-10.979,3.131c-1.345-2.612-3.357-4.944-5.612-6.246
				c-4.07-2.35-7.383-0.462-7.396,4.215l-0.006,2.147l-5.464-3.155c-2.852-1.647-5.168-0.321-5.177,2.956
				c-0.009,3.277,2.292,7.263,5.144,8.91l46.289,26.725c2.852,1.647,5.173,0.329,5.183-2.947c0.009-3.277-2.297-7.271-5.149-8.918
				l-5.464-3.155l0.011-3.951C393.166,74.367,388.07,65.542,381.765,61.902z"/>
		</g>
		<g>
			<path style="fill:#E6E6E6;" d="M336.402,79.411c-3.729-2.153-6.879-1.099-7.88,2.247c-0.965-1.875-2.41-3.549-4.028-4.483
				c-2.921-1.687-5.299-0.332-5.308,3.025l-0.004,1.541l-3.922-2.264c-2.047-1.182-3.709-0.23-3.716,2.122
				c-0.007,2.352,1.645,5.213,3.692,6.395l33.224,19.182c2.047,1.182,3.713,0.236,3.72-2.116c0.007-2.352-1.649-5.219-3.695-6.401
				l-3.922-2.264l0.008-2.836C344.585,88.358,340.928,82.024,336.402,79.411z"/>
		</g>
	</g>
</g>
</svg>
