<?xml version="1.0" encoding="utf-8"?>
<!-- Generator: Adobe Illustrator 27.5.0, SVG Export Plug-In . SVG Version: 6.00 Build 0)  -->
<svg version="1.1" id="Layer_1_1_" xmlns="http://www.w3.org/2000/svg" xmlns:xlink="http://www.w3.org/1999/xlink" x="0px" y="0px"
	 viewBox="0 0 450 450" style="enable-background:new 0 0 450 450;" xml:space="preserve">
<g>
	<g>
		<polygon style="fill:#E3C486;" points="129.794,395.361 332.265,278.464 320.206,271.502 117.735,388.398 		"/>
		<polygon style="fill:#B88648;" points="117.735,399.308 129.794,406.271 129.794,395.361 117.735,388.398 		"/>
	</g>
	<g>
		<g>
			<polygon style="fill:#CDAB68;" points="286.136,244.729 226.031,279.43 223.166,277.776 283.271,243.074 			"/>
			<polygon style="fill:#9E6C2F;" points="226.031,331.512 226.031,279.43 223.166,277.776 223.166,329.858 			"/>
			<polygon style="fill:#B88648;" points="286.136,296.81 226.031,331.512 226.031,279.43 286.136,244.729 			"/>
		</g>
	</g>
	<g>
		<g>
			<polygon style="fill:#CDAB68;" points="325.089,64.197 286.136,86.686 283.271,85.032 322.223,62.542 			"/>
			<polygon style="fill:#9E6C2F;" points="286.136,296.81 286.136,86.686 283.271,85.032 283.271,295.156 			"/>
			<polygon style="fill:#B88648;" points="325.089,274.321 286.136,296.81 286.136,86.686 325.089,64.197 			"/>
		</g>
	</g>
	<g>
		<g>
			<polygon style="fill:#CDAB68;" points="221.675,281.945 157.235,319.149 154.37,317.495 218.81,280.291 			"/>
			<polygon style="fill:#9E6C2F;" points="157.235,371.231 157.235,319.149 154.37,317.495 154.37,369.577 			"/>
			<polygon style="fill:#B88648;" points="221.675,334.027 157.235,371.231 157.235,319.149 221.675,281.945 			"/>
		</g>
	</g>
	<g>
		<polygon style="fill:#D2AF72;" points="161.571,212.154 286.136,140.237 286.136,132.036 161.571,203.954 		"/>
		<g>
			<g>
				<g>
					<polygon style="fill:#B88648;" points="319.57,277.507 324.354,280.269 324.354,63.407 319.57,60.645 					"/>
				</g>
				<g>
					<polygon style="fill:#CA9B57;" points="324.354,280.269 329.873,277.083 329.873,60.22 324.354,63.407 					"/>
				</g>
			</g>
			<g>
				<polygon style="fill:#B88648;" points="286.136,296.81 290.92,299.573 290.92,82.71 286.136,79.948 				"/>
				<polygon style="fill:#C99C4F;" points="161.571,208.097 286.136,136.179 290.92,138.941 166.355,210.859 				"/>
				<polygon style="fill:#CA9B57;" points="290.92,299.573 295.256,297.069 295.256,80.207 290.92,82.71 				"/>
			</g>
			<g>
				<polygon style="fill:#B88648;" points="221.675,334.027 226.46,336.789 226.46,284.022 221.675,281.26 				"/>
				<polygon style="fill:#CA9B57;" points="226.46,336.789 230.795,334.286 230.795,281.519 226.46,284.022 				"/>
			</g>
			<g>
				<polygon style="fill:#B88648;" points="253.895,315.425 258.68,318.187 258.68,265.419 253.895,262.657 				"/>
				<polygon style="fill:#CA9B57;" points="258.68,318.187 263.015,315.684 263.015,262.917 258.68,265.419 				"/>
			</g>
			<g>
				<polygon style="fill:#B88648;" points="189.456,352.629 194.239,355.391 194.239,302.624 189.456,299.862 				"/>
				<polygon style="fill:#CA9B57;" points="194.239,355.391 198.575,352.888 198.575,300.121 194.239,302.624 				"/>
			</g>
			<g>
				<polygon style="fill:#B88648;" points="280.564,241.292 290.133,246.816 290.133,145.633 280.564,140.109 				"/>
				<polygon style="fill:#E3C486;" points="157.983,201.882 282.548,129.964 286.136,132.036 161.571,203.954 				"/>
				<polygon style="fill:#E3C486;" points="171.926,315.062 290.133,246.816 280.564,241.292 162.358,309.538 				"/>
				<polygon style="fill:#B88648;" points="159.179,314.58 168.747,320.104 168.747,208.097 159.179,202.573 				"/>
				<polygon style="fill:#B88648;" points="159.179,314.58 166.355,318.723 166.355,206.716 159.179,202.573 				"/>
			</g>
			<g>
				<polygon style="fill:#B88648;" points="221.675,173.396 226.46,176.158 226.46,119.926 221.675,117.164 				"/>
				<polygon style="fill:#CA9B57;" points="226.46,172.015 230.795,169.512 230.795,117.423 226.46,119.926 				"/>
			</g>
			<g>
				<polygon style="fill:#B88648;" points="189.456,191.998 194.239,194.76 194.239,138.528 189.456,135.766 				"/>
				<polygon style="fill:#CA9B57;" points="194.239,190.617 198.575,188.114 198.575,136.025 194.239,138.528 				"/>
			</g>
			<g>
				<polygon style="fill:#B88648;" points="253.895,154.793 258.68,157.555 258.68,101.324 253.895,98.562 				"/>
				<polygon style="fill:#CA9B57;" points="258.68,153.412 263.015,150.909 263.015,98.821 258.68,101.324 				"/>
			</g>
			<g>
				<polygon style="fill:#B88648;" points="157.235,371.231 162.019,373.993 162.019,157.131 157.235,154.369 				"/>
				<polygon style="fill:#CA9B57;" points="162.019,373.993 166.355,371.49 166.355,154.628 162.019,157.131 				"/>
			</g>
			<g>
				<polygon style="fill:#B88648;" points="122.618,391.218 127.402,393.98 127.402,177.117 122.618,174.355 				"/>
				<polygon style="fill:#CA9B57;" points="127.402,393.98 132.921,390.793 132.921,173.931 127.402,177.117 				"/>
			</g>
			<g>
				<polygon style="fill:#B88648;" points="117.735,171.536 129.794,178.498 129.794,167.588 117.735,160.626 				"/>
				<polygon style="fill:#E3C486;" points="129.794,167.588 332.265,50.692 320.206,43.729 117.735,160.626 				"/>
			</g>
		</g>
		<polygon style="fill:#D2AF72;" points="129.794,406.271 332.265,289.374 332.265,278.464 129.794,395.361 		"/>
		<path style="fill:#D1A969;" d="M168.747,208.097v112.007l124.565-71.918V136.179L168.747,208.097z M171.926,213.879
			l118.206-68.246v101.183l-118.206,68.246V213.879z"/>
		<polygon style="fill:#D1A969;" points="129.794,178.498 332.265,61.602 332.265,50.692 129.794,167.588 		"/>
		<polygon style="fill:#D1A969;" points="169.943,216.988 294.508,145.07 294.508,136.87 169.943,208.788 		"/>
		<polygon style="fill:#E3C486;" points="166.355,206.716 290.92,134.798 294.508,136.87 169.943,208.788 		"/>
		<polygon style="fill:#B88648;" points="166.355,206.716 166.355,214.917 169.943,216.988 169.943,208.788 		"/>
	</g>
	<polygon style="fill:#AEAEAE;" points="299.075,166.659 293.125,163.223 293.125,251.103 299.075,254.538 	"/>
	<polygon style="fill:#F7F4F2;" points="192.616,316.002 186.666,312.567 293.125,251.103 299.075,254.538 	"/>
	
		<linearGradient id="SVGID_1_" gradientUnits="userSpaceOnUse" x1="-4677.6328" y1="326.556" x2="-4547.3999" y2="100.9861" gradientTransform="matrix(1 0 0 1 4869.4893 0)">
		<stop  offset="0.2189" style="stop-color:#767169"/>
		<stop  offset="0.3378" style="stop-color:#93918E"/>
		<stop  offset="0.8027" style="stop-color:#93918E"/>
		<stop  offset="0.9" style="stop-color:#767169"/>
	</linearGradient>
	<polygon style="opacity:0.55;fill:url(#SVGID_1_);" points="295.487,164.587 295.487,252.466 189.027,313.931 189.027,226.052 	"/>
	
		<linearGradient id="SVGID_00000130632629805670047950000012806930109886465165_" gradientUnits="userSpaceOnUse" x1="-8554.6563" y1="2791.9204" x2="-8545.457" y2="2791.9204" gradientTransform="matrix(-0.6163 0.7875 0.7875 0.6163 -7201.5796 5292.5322)">
		<stop  offset="0" style="stop-color:#F5D2A0"/>
		<stop  offset="1" style="stop-color:#F5BD9E"/>
	</linearGradient>
	<path style="fill:url(#SVGID_00000130632629805670047950000012806930109886465165_);" d="M272.379,279.713
		c0,0-3.204,3.881-4.114,4.302c-0.911,0.421-2.467,0.503-2.832,0.438c-0.365-0.064-2.01-0.965-2.01-0.965l-0.851-1.634
		c0,0-1.678-1.673-1.62-1.959c0.058-0.286,0.389-0.497,0.389-0.497s0.597,0.191,0.895,0.341c0.298,0.15,0.608,0.531,0.608,0.531
		l0.583-0.18l1.012-0.48l0.39-0.11c0,0,1.197,0.273,1.456,0.366c0.259,0.092,2.07-2.438,3.033-2.644
		c0.962-0.205,3.079,1.619,3.079,1.619L272.379,279.713z"/>
	<g>
		<g>
			<path style="fill:#C2C2C2;" d="M186.819,326.001l118.053-68.158V156.66l-118.053,68.158V326.001z M192.616,228.123
				l106.459-61.464v87.879l-106.459,61.464V228.123z"/>
		</g>
	</g>
	<polygon style="fill:#EEEEEE;" points="186.819,224.818 180.869,221.383 298.922,153.225 304.872,156.66 	"/>
	<polygon style="fill:#AEAEAE;" points="186.819,224.818 180.869,221.383 180.869,322.566 186.819,326.001 	"/>
	<g>
		<path style="fill:#2A2A38;" d="M197.738,389.421c0.098,0.784,0.588,1.927,0.98,3.169c0.392,1.241,0.238,2.254,0.037,2.973
			c-0.201,0.719-4.186,1.535-5.46,0.947c-1.274-0.588-1.405-1.405-1.405-1.405s-1.993-4.116-2.581-4.639
			c-0.588-0.523-2.254-2.94-2.777-4.835c-0.523-1.895,0.196-3.332,0.882-3.985c0.686-0.653,2.711-1.212,2.711-1.212L197.738,389.421
			z"/>
		<path style="fill:#2A2A38;" d="M219.985,372.924c-0.621,0.163-1.437,0.653-1.437,1.405c0,0.751-0.327,1.601,0.523,3.169
			c0.85,1.568,1.151,2.583,1.666,3.561c0.515,0.978,0.555,3.986,1.078,4.998c0.523,1.013,2.548,1.392,4.279,1.251
			c1.731-0.141,1.991-0.99,2.057-1.284c0.066-0.294-0.131-2.711,0-3.234c0.131-0.523,0.393-2.907,0.229-4.247
			c-0.163-1.339-1.503-3.528-2.678-4.018C224.525,374.035,219.985,372.924,219.985,372.924z"/>
		<path style="fill:#A1A1A1;" d="M198.718,385.599c-0.033,1.829,0.098,5.815,0,6.991c-0.098,1.176-3.267,2.189-5.553,1.045
			c-2.287-1.143-3.822-4.508-4.671-5.521c-0.85-1.013-2.352-3.43-1.176-5.455c1.176-2.025,3.755-2.225,3.755-2.225l3.432,1.408
			L198.718,385.599z"/>
		<path style="fill:#A1A1A1;" d="M227.302,376.126c0.49,1.797,0.98,2.156,0.817,3.528c-0.163,1.372,0.131,3.855-0.131,4.508
			c-0.261,0.653-1.111,1.143-3.267,0.948c-2.156-0.196-3.038-1.535-3.038-1.535s-1.045-3.724-1.241-4.378
			c-0.196-0.653-0.457-4.312-0.457-4.312l0.98-2.319L227.302,376.126z"/>
		<path style="fill:#48A7BD;" d="M222.26,311.641c0.174,0.784,2.962,11.15,3.136,23.52c0.174,12.37,0.697,15.245,0,18.903
			c-0.697,3.659-10.279,4.269-10.715,1.307c-0.436-2.962-4.85-14.548-5.212-17.597c-0.363-3.049,0.421-25.611,0.421-25.611
			L222.26,311.641z"/>
		<path style="fill:#48A7BD;" d="M225.135,348.054c0.613,1.655,1.045,3.572,1.568,7.666c0.523,4.094,0.958,20.036,0.958,22.388
			c0,2.352-4.704,3.397-7.23,2.004c-2.526-1.394-3.397-9.931-3.572-11.325c-0.174-1.394-1.626-11.159-2.178-13.415
			c-0.552-2.257,1.481-8.798,1.481-8.798L225.135,348.054z"/>
		<path style="fill:#48A7BD;" d="M192.904,314.777c-2.439,9.408-3.92,16.116-2.875,27.963c1.045,11.847,1.83,14.199,1.917,15.07
			c0.087,0.871,1.045,2.962,5.227,2.962s5.837-0.784,5.837-1.742c0-0.958,3.397-17.161,4.094-18.032
			c0.697-0.871,2.875-2.962,2.875-3.746s2.352-4.791,2.265-11.847c-0.087-7.056-0.784-10.628-0.784-10.628H192.904z"/>
		<path style="fill:#48A7BD;" d="M201.615,353.803c0.61,2.265,1.234,3.084,1.227,5.724c-0.007,2.639-1.924,23.807-3.405,26.943
			c-3.659,1.829-7.404,0.435-7.84-2.004c-0.436-2.439-1.394-11.412-1.045-15.593c0.348-4.181,0.966-13.431,0.966-13.431
			L201.615,353.803z"/>
		<path style="fill:#F5BF36;" d="M227.661,272.244c1.829,0.327,3.855,3.071,4.965,5.423c1.111,2.352,4.835,12.74,5.619,14.373
			c0.784,1.633,1.829,5.488-1.307,7.056c-3.136,1.568-4.247,1.241-5.357,0c-1.111-1.241-4.965-6.729-5.423-9.539
			c-0.457-2.809,0.392-14.047,0.588-15.027C226.943,273.551,227.661,272.244,227.661,272.244z"/>
		<path style="fill:#F5BF36;" d="M236.329,291.91c0.261-1.045,1.568-1.481,2.439-1.132c0.871,0.349,2.918,3.31,3.223,4.443
			c0.305,1.132-0.174,3.484-0.784,4.443c-0.61,0.958-3.572,2.831-4.878,2.308c-1.307-0.522-3.558-1.551-4.426-2.547
			C231.035,298.428,236.329,291.91,236.329,291.91z"/>
		
			<linearGradient id="SVGID_00000166643147567712514100000017155409010303808942_" gradientUnits="userSpaceOnUse" x1="-3925.8289" y1="295.879" x2="-3918.8538" y2="295.879" gradientTransform="matrix(-1 0 0 1 -3680.1042 0)">
			<stop  offset="0" style="stop-color:#F5D2A0"/>
			<stop  offset="1" style="stop-color:#F5BD9E"/>
		</linearGradient>
		<path style="fill:url(#SVGID_00000166643147567712514100000017155409010303808942_);" d="M240.01,293.369
			c0.997-0.054,2.047-0.762,2.461-0.762c0.414,0,2.2-1.241,2.722-1.023c0.523,0.218,0.806,0.784,0.152,1.285
			s-2.265,1.372-2.33,1.655c-0.065,0.283-0.043,1.067-0.043,1.067s0.653,1.285,0.675,1.72c0.022,0.435-0.893,1.132-0.893,1.132
			s-0.697,0.915-1.045,1.089c-0.349,0.174-2.505,1.22-2.896,0.283C238.42,298.879,240.01,293.369,240.01,293.369z"/>
		<path style="fill:#F5BF36;" d="M187.219,252.383c1.96,0.523,2.679,1.372,3.005,0c0.327-1.372,4.704-17.248,4.77-18.424
			c0.065-1.176-4.573-3.397-6.338-2.875c-2.548,4.508-8.617,19.603-8.988,21.533C184.606,251.403,187.219,252.383,187.219,252.383z"
			/>
		
			<linearGradient id="SVGID_00000040560192687490593430000006243658818288086949_" gradientUnits="userSpaceOnUse" x1="-3883.564" y1="225.0772" x2="-3869.6758" y2="225.0772" gradientTransform="matrix(-1 0 0 1 -3680.1042 0)">
			<stop  offset="0" style="stop-color:#F5D2A0"/>
			<stop  offset="1" style="stop-color:#F5BD9E"/>
		</linearGradient>
		<path style="fill:url(#SVGID_00000040560192687490593430000006243658818288086949_);" d="M194.363,234.699
			c0.806-1.328,2.57-4.595,2.57-4.595s4.007-2.613,4.639-3.397c0.632-0.784,1.459-3.31,1.633-4.16c0.174-0.85,0.414-4.465,0.109-4.9
			c-0.305-0.436-0.762-0.436-0.762-0.436s0.24-1.285,0.022-1.503c-0.218-0.218-1.154-0.566-1.568,0.327
			c-0.414,0.893-0.719,1.764-0.719,1.764s-0.044-0.457-0.762-0.588c-0.719-0.131-0.784,0.305-1.546,1.394
			c-0.762,1.089-2.069,2.875-2.483,3.092c-0.414,0.218-2.004,2.483-2.657,3.594c-0.653,1.111-0.827,2.069-1.219,2.853
			c-0.392,0.784-2.047,3.659-2.047,3.659L194.363,234.699z"/>
		
			<linearGradient id="SVGID_00000174570833693124334270000009034430182879790772_" gradientUnits="userSpaceOnUse" x1="-3903.1494" y1="259.3309" x2="-3886.249" y2="259.3309" gradientTransform="matrix(-1 0 0 1 -3680.1042 0)">
			<stop  offset="0" style="stop-color:#F5D2A0"/>
			<stop  offset="1" style="stop-color:#F5BD9E"/>
		</linearGradient>
		<path style="fill:url(#SVGID_00000174570833693124334270000009034430182879790772_);" d="M206.145,261.334
			c0.261,0.566,0.784,3.267,0,5.924c4.138,2.352,6.925,2.788,8.929,2.831c2.004,0.044,2.831-0.131,2.831-0.131
			s-1.002-1.132-0.871-1.829c0.131-0.697,1.568-2.744,2.483-4.399c0.915-1.655,3.484-7.405,3.528-9.191
			c0.044-1.786-2.178-5.314-2.178-5.314s-6.838-0.871-8.232-0.61C211.241,248.877,206.145,261.334,206.145,261.334z"/>
		<path style="fill:#7B474A;" d="M207.93,264.687c1.307,0.697,4.225,1.133,5.836,0.915c1.612-0.218,2.744-1.524,2.744-1.524
			s1.481-3.354,2.613-4.225c1.132-0.871,1.002,0.087,1.002,0.087l-0.523,1.655l0.929,0.066c0,0,1.135-2.623,1.236-2.877
			c0.101-0.254,1.189-2.504,1.494-3.767c0.305-1.263,1.176-3.746-0.784-7.013c-1.96-3.267-4.922-4.007-6.446-4.181
			c-2.831-1.133-7.971-1.089-10.845,4.007c-2.875,5.096-0.653,13.241,0,14.417C205.84,263.424,205.851,264.017,207.93,264.687z"/>
		<path style="fill:#F5AC36;" d="M227.661,272.244c-3.136-1.633-8.428-2.417-10.715-2.613c-2.287-0.196-5.521-2.929-10.802-2.374
			c-5.282,0.555-14.417,8.189-14.417,11.651c0,3.463,0.065,23.39-0.392,27.963c-0.457,4.573-0.523,7.514,0.915,9.604
			s12.283,3.267,20.057,2.352c7.775-0.915,10.192-1.895,10.65-2.809c0.457-0.914,0.784-7.187,0.588-9.147
			c-0.196-1.96-0.196-6.256,0.849-10.511c1.045-4.255,2.744-7.195,3.267-10.788C228.184,281.979,227.661,272.244,227.661,272.244z"
			/>
		<path style="fill:#48A7BD;" d="M223.544,317.495c0,0,0.93-7.905,0.523-12.398c-0.407-4.493,0-4.343,0-4.343s-0.518-3.508,0-10.332
			c-7.455,0.625-23.135-0.824-23.889-0.362c-0.478,3.103-2.199,5.103-3.229,5.951c-1.688,1.388-4.424,3.235-5.526,1.682
			c0,0-1.665,26.982-1.359,30.949C197.866,328.383,223.544,317.495,223.544,317.495z"/>
		<path style="fill:#F5BF36;" d="M182.058,250.292c3.985-0.588,7.579,1.437,8.232,2.483c0.653,1.045,5.619,10.388,6.403,11.172
			c0.784,0.784,4.639,4.051,5.357,5.227c0.719,1.176-0.261,4.508-3.593,8.101c-3.332,3.594-6.142,4.9-6.664,3.92
			c-0.523-0.98-4.9-9.866-6.206-11.891c-1.307-2.025-6.664-12.152-6.272-15.288C179.706,250.88,182.058,250.292,182.058,250.292z"/>
	</g>
	<g>
		<g>
			<path style="fill:#2A2A38;" d="M317.542,328.252c-0.343-0.512-1.587-1.583-2.905-1.933c-1.319-0.35-2.364,0.697-2.473,1.354
				c-0.11,0.657-0.001,1.994,0.923,3.304c0.924,1.31,2.785,2.264,3.222,2.642c0.437,0.378,1.07,0.748,1.07,0.748l1.504,2.046
				c0,0,0.529,2.238,1.702,3.148c1.173,0.91,3.092,0.62,4.462,0.511c1.369-0.109,1.363-0.305,1.612-0.705
				c0.249-0.4,0.39-2.562,0.069-3.173c-0.321-0.611-3.565-3.939-3.565-3.939L317.542,328.252z"/>
			<path style="fill:#A1A1A1;" d="M319,327.878c-0.904-0.657-3.257-1.693-4.364-1.56c-1.107,0.134-2.155,1.082-2.155,1.082
				s-0.01,1.733,0.773,2.688c0.782,0.955,3.754,2.919,3.754,2.919s2.306,2.606,3.16,3.755c0.854,1.149,2.177,1.63,4.617,1.29
				c2.44-0.34,1.877-2.609,1.877-2.609s-1.019-5.295-1.553-5.637c-0.534-0.342-2.687-2.267-2.687-2.267L319,327.878z"/>
			<path style="fill:#48A7BD;" d="M318.781,268.108c1.625,5.831,1.981,15.581,1.949,18.676c-0.032,3.095-1.146,9.318-0.512,11.433
				c0.634,2.115,2.54,7.196,3.539,13.875c0.998,6.679,1.63,16.856,1.532,19.256c-0.097,2.4-6.078,2.069-6.846,1.222
				c-0.768-0.847-2.687-4.969-3.555-8.95c-0.868-3.981-5.304-18.873-6.331-22.37c-1.027-3.497-2.562-16.042-2.696-18.87
				c-0.134-2.828,0.155-15.563,0.155-15.563l8.742-3.243L318.781,268.108z"/>
			<g>
				<path style="fill:#49BCD3;" d="M318.866,333.107c-0.138-0.054-0.138-0.054-0.668-2.037c-0.313-1.172-0.753-2.832-1.272-4.79
					c-2.363-8.919-6.319-23.846-7.405-27.127c-1.563-4.722-1.995-24.885-2.012-25.742l0.526-0.011
					c0.004,0.209,0.448,20.94,1.986,25.587c1.091,3.295,5.049,18.233,7.414,27.158c0.954,3.599,1.707,6.441,1.769,6.618
					l-0.238,0.084L318.866,333.107z"/>
			</g>
		</g>
		<path style="fill:#2A2A38;" d="M296.547,348.766c0.377,0.543,1.076,0.946,1.099,1.664c0.023,0.718-0.026,1.995-0.151,2.293
			c-0.125,0.298-2.936,2.349-5.462,1.025c-2.526-1.324-3.408-2.309-3.408-2.309s-0.056-0.717-0.261-1.005
			c-0.205-0.288-3.663-2.105-4.659-2.596c-0.996-0.491-2.139-1.468-3.085-3.464c-0.947-1.996,0.245-3.472,0.245-3.472
			s0.855-0.939,1.477-0.912c0.622,0.028,6.25,4.129,6.25,4.129L296.547,348.766z"/>
		<path style="fill:#A1A1A1;" d="M297.154,343.223c0.056,0.717,0.344,5.643-0.174,6.804c-0.519,1.161-2.878,1.988-4.755,1.558
			c-1.877-0.43-3.019-2.42-4.836-3.015c-1.817-0.595-5.146-2.483-5.743-3.803c-0.598-1.321-0.873-2.75-0.693-3.279
			c0.179-0.529,1.923-2.219,2.872-2.184c0.949,0.035,3.887,0.954,3.887,0.954l3.219,0.485L297.154,343.223z"/>
		<path style="fill:#48A7BD;" d="M310.302,273.457c1.286,6.147,1.419,8.932,1.487,13.767c0.068,4.835-4.035,8.714-5.034,10.184
			c-0.999,1.47-5.682,18.529-5.952,20.978c-0.27,2.449-2.324,25.393-3.153,26.727c-0.829,1.334-4.324,1.054-6.443,0.206
			c-2.119-0.847-2.189-3.024-2.301-3.805c-0.112-0.781-1.302-20.222-1.033-24.066c0.269-3.844-0.061-25.012,0.445-30.999
			c0.506-5.986,2.119-12.749,2.49-13.415c0.371-0.665,16.212-1.347,16.212-1.347L310.302,273.457z"/>
		<g>
			<path style="fill:#49BCD3;" d="M290.146,344.886c-0.044-1.041-1.077-25.536-0.915-28.591c0.06-1.129,0.023-3.619-0.02-6.501
				c-0.072-4.833-0.161-10.848,0.196-12.821c0.096-0.53,0.257-1.358,0.461-2.407c0.953-4.896,2.935-15.082,3.007-19.56l0.526,0.009
				c-0.073,4.524-2.061,14.741-3.017,19.652c-0.204,1.047-0.365,1.874-0.46,2.4c-0.348,1.922-0.26,7.909-0.188,12.719
				c0.043,2.892,0.08,5.39,0.02,6.537c-0.16,3.03,0.904,28.287,0.915,28.542L290.146,344.886z"/>
		</g>
		<path style="fill:#F5BF36;" d="M321.328,236.717c2.981-3.538,3.675-6.35,3.872-8.361c0.197-2.011,0.051-6.582-0.273-8.533
			c-0.324-1.951-3.363-2.943-5.128-2.276c-1.765,0.667-3.444,4.033-3.798,5.221c-0.354,1.188-2.407,5.132-2.159,7.434
			C314.089,232.503,321.328,236.717,321.328,236.717z"/>
		<path style="fill:#F5AC36;" d="M291.877,276.445c4.541,1.641,15.114,1.128,19.989-0.423c4.875-1.551,5.389-2.556,5.932-2.907
			c0.543-0.351,1.298-3.992,1.554-5.526c0.256-1.534-0.275-11.322,0.021-14.294c0.297-2.973,2.184-13.448,2.297-16.72
			c0.113-3.272-3.07-10.143-5.691-10.32c-2.62-0.177-5.043,0.38-8.215,0.655c-3.172,0.276-8.256,2.095-10.762,4.136
			c-2.506,2.041-8.55,5.155-9.055,7.088c-0.505,1.934,1.102,20.788,1.671,23.584c0.569,2.796,0.793,11.138,0.833,12.41
			C290.493,275.4,291.877,276.445,291.877,276.445z"/>
		<path style="fill:#48A7BD;" d="M315.206,252.624c0.571-10.824,0.908-19.403-1.106-22.605c-2.014-3.202-4.053-3.357-4.053-3.357
			s3.094-0.46,4.351-0.442c4.126,2.693,4.844,6.141,4.904,11.703c0.06,5.562-0.239,16.884-0.239,16.884L315.206,252.624z"/>
		<path style="fill:#48A7BD;" d="M319.827,273.406c1.469-9.609-0.452-20.111-0.452-20.111s-1.029-0.409-2.464-1.532
			c-1.435-1.123-8.85,2.785-14.591,3.981c-4.226,4.943-5.6,6.69-8.142,7.172c-2.542,0.482-4.769-3.586-4.769-3.586
			s0.086,16.215,0.319,17.876c0.233,1.66,9.801,7.567,13.708,7.006C307.342,283.651,319.827,273.406,319.827,273.406z"/>
		<path style="fill:#F5BF36;" d="M291.343,236.631c2.272,1.539,3.228,4.167,2.686,9.022c-0.542,4.855-1.977,13.577-4.65,19.422
			c-2.674,5.844-8.738-1.546-8.718-4.989c0.02-3.444,3.712-13.795,4.385-17.259c0.673-3.464,2.66-5.555,4.096-6.255
			C290.578,235.871,291.343,236.631,291.343,236.631z"/>
		<path style="fill:#F5BF36;" d="M275.73,267.253c1.799-2.959,5.205-7.922,5.205-7.922s9.489,2.197,8.651,5.127
			c-0.838,2.93-4.46,7.662-9.073,10.96c-4.613,3.298-6.921,5.026-7.385,5.269c-0.464,0.244-1.646-1.32-2.454-2.476
			c-0.808-1.156-1.239-1.805-1.071-2.503C270.289,272.86,273.965,269.73,275.73,267.253z"/>
		
			<linearGradient id="SVGID_00000127044779926208680730000006231016544811858571_" gradientUnits="userSpaceOnUse" x1="-7803.229" y1="1922.9764" x2="-7794.373" y2="1922.9764" gradientTransform="matrix(-0.7543 0.6565 0.6565 0.7543 -6878.5796 3948.833)">
			<stop  offset="0" style="stop-color:#F5D2A0"/>
			<stop  offset="1" style="stop-color:#F5BD9E"/>
		</linearGradient>
		<path style="fill:url(#SVGID_00000127044779926208680730000006231016544811858571_);" d="M264.534,280.515
			c0.117-0.015,2.389-0.174,2.389-0.174s2.014-0.733,3.232-1.341c0.796-0.397-0.18-2.84-0.728-2.739
			c-0.547,0.101-2.408,0.807-2.826,1.206c-0.418,0.399-1.694,1.322-1.694,1.322s-1.127,0.231-1.579,0.624
			c-0.452,0.393-1.206,0.92-1.311,1.314c-0.104,0.394,0.513,0.954,0.998,0.748C263.502,281.269,264.534,280.515,264.534,280.515z"/>
		<path style="fill:#F5BF36;" d="M324.746,221.006c0,0,0.4-1.102-0.07-2.177c-0.47-1.074-12.422-15.029-13.173-15.353
			c-0.751-0.325-4.04,3.136-4.103,3.879c-0.063,0.743,7.967,14.189,8.767,14.938C316.967,223.042,324.746,221.006,324.746,221.006z"
			/>
		
			<linearGradient id="SVGID_00000059998500565580995260000017110365110095904406_" gradientUnits="userSpaceOnUse" x1="-4184.4712" y1="211.3103" x2="-4174.8384" y2="211.3103" gradientTransform="matrix(-0.9995 0.032 0.032 0.9995 -3878.3669 121.0875)">
			<stop  offset="0" style="stop-color:#F5D2A0"/>
			<stop  offset="1" style="stop-color:#F5BD9E"/>
		</linearGradient>
		<path style="fill:url(#SVGID_00000059998500565580995260000017110365110095904406_);" d="M310.964,204.321
			c-0.049-0.173-1.483-2.088-1.778-3.125c-0.295-1.036-0.627-4.599-1.016-5.197c-0.389-0.598-2.997-5.133-3.401-5.491
			c-0.404-0.357-1.051-0.162-1.049-0.097c0.002,0.065-0.569,0.585-0.381,1.036c0.189,0.451,0.263,0.732,0.263,0.732
			s1.685,4.304,1.741,4.694c0.056,0.391-0.282,0.728-0.282,0.728l-1.063-0.533c0,0-1.33-2.071-1.838-2.273
			c-0.508-0.202-1.048-0.076-1.114,0.58c-0.066,0.656,0.737,1.915,0.737,1.915s2.174,3.918,2.807,4.639
			c0.633,0.721,1.433,1.893,1.433,1.893s1.539,2.733,1.659,2.95C307.803,206.993,310.964,204.321,310.964,204.321z"/>
		
			<linearGradient id="SVGID_00000089542188855467145010000010039936979923441033_" gradientUnits="userSpaceOnUse" x1="-4183.4507" y1="231.9441" x2="-4168.8389" y2="231.9441" gradientTransform="matrix(-0.9995 0.032 0.032 0.9995 -3878.3669 121.0875)">
			<stop  offset="0" style="stop-color:#F5D2A0"/>
			<stop  offset="1" style="stop-color:#F5BD9E"/>
		</linearGradient>
		<path style="fill:url(#SVGID_00000089542188855467145010000010039936979923441033_);" d="M310.557,223.923
			c-0.526,2.742-0.597,2.797-0.527,3.972c0.07,1.174-2.367,2.625-4.739,3.061c-2.372,0.436-6.291,0.282-6.194-0.52
			c0.097-0.803-0.292-5.024-0.335-5.349c-0.043-0.326-1.964-1.114-2.526-2.338c-0.562-1.224-0.574-7.728-0.3-9.371
			c0.274-1.643,0.78-5.254,2.168-5.789c1.388-0.535,10.539,2.506,11.476,6.234C310.516,217.551,310.557,223.923,310.557,223.923z"/>
		<path style="fill:#7B474A;" d="M300.493,222.99c0.827,2.34,2.632,3.6,2.632,3.6s4.23,0.431,5.648-0.181
			c1.419-0.612,2.027-0.991,2.027-0.991s3.283-4.648,4.504-8.348c1.221-3.7,0.876-8.362-3.786-11.057
			c-4.194-4.409-11.171-1.832-12.988-0.401c-1.817,1.431-3.291,5.908-2.7,8.822c0.81,2.58,0.987,5.046,0.987,5.046l0.638,0.547
			c0,0-0.069-3.168,0.99-2.777c1.058,0.391,1.003,2.746,0.928,3.468c-0.075,0.721,0.241,1.397,0.241,1.397L300.493,222.99z"/>
		
			<linearGradient id="SVGID_00000140735499345966684360000002541294264957430198_" gradientUnits="userSpaceOnUse" x1="-4172.1338" y1="231.8412" x2="-4170.6538" y2="231.8412" gradientTransform="matrix(-0.9995 0.032 0.032 0.9995 -3878.3669 121.0875)">
			<stop  offset="0" style="stop-color:#F5D2A0"/>
			<stop  offset="1" style="stop-color:#F5BD9E"/>
		</linearGradient>
		<path style="fill:url(#SVGID_00000140735499345966684360000002541294264957430198_);" d="M298.715,221.208
			c-0.363,0.589-0.649,0.5-0.852-0.071c-0.203-0.571-0.131-2.066-0.249-2.661c-0.117-0.596,0.095-1.548,0.66-1.405
			c0.566,0.143,0.85,1.291,0.816,2.251C299.055,220.282,298.715,221.208,298.715,221.208z"/>
	</g>
	<path style="fill:#48A7BD;" d="M200.178,290.06c1.914-6.727,1.726-15.666,1.521-17.565c-0.205-1.9-1.521-3.395-1.521-3.395
		s1.689-1.191,3.326-1.134c1.637,0.057,3.039,3.107,3.594,7.771c0.555,4.664-1.721,19.316-1.721,19.316l-5.558,1.734L200.178,290.06
		z"/>
	<path style="fill:#48A7BD;" d="M223.166,295.879c3.352-16.018,3.046-19.571,2.859-21.836c-0.186-2.265-0.845-2.871-1.687-3.199
		c-1.034-0.403-4.361-0.822-4.361-0.822s1.191,1.888,1.43,2.666c0.239,0.777-0.598,14.891-2.153,19.256
		C221.049,294.993,223.166,295.879,223.166,295.879z"/>
	<path style="fill:#48A7BD;" d="M299.812,259.331c1.071-11.76-1.455-22.59-3.115-23.999c-2.904-2.466-3.61-1.668-3.61-1.668
		s2.522-2.113,4.232-2.863c4.76,1.581,5.836,6.903,6.494,11.269c0.658,4.365,0.949,16.983,0.949,16.983l-4.951,2.871V259.331z"/>
</g>
</svg>
